<?xml version="1.0" standalone="no"?>
<!DOCTYPE svg PUBLIC "-//W3C//DTD SVG 20010904//EN"
 "http://www.w3.org/TR/2001/REC-SVG-20010904/DTD/svg10.dtd">
<svg version="1.0" xmlns="http://www.w3.org/2000/svg"
 width="532.000000pt" height="476.000000pt" viewBox="0 0 532.000000 476.000000"
 preserveAspectRatio="xMidYMid meet">
<metadata>
Created by potrace 1.16, written by Peter Selinger 2001-2019
</metadata>
<g transform="translate(0.000000,476.000000) scale(0.100000,-0.100000)"
fill="#000000" stroke="none">
<path d="M1520 4750 c-115 -15 -235 -74 -306 -151 -78 -83 -140 -214 -171
-359 -36 -168 -20 -615 28 -767 13 -41 48 -63 99 -63 33 0 48 6 71 29 35 35
35 41 8 230 -18 121 -20 176 -16 321 5 189 17 249 66 356 38 81 90 137 159
171 79 39 201 39 315 0 239 -82 473 -244 755 -521 392 -385 758 -897 1052
-1470 l75 -146 -75 -146 c-90 -177 -234 -425 -342 -590 -73 -113 -81 -122
-116 -128 -20 -3 -167 -9 -327 -13 -1080 -22 -2068 220 -2451 602 -185 185
-185 365 0 550 367 366 1290 604 2344 605 222 0 223 0 247 24 47 47 43 121 -8
160 -28 20 -39 21 -315 20 -630 -2 -1192 -84 -1663 -242 -344 -116 -594 -255
-759 -422 -134 -137 -189 -259 -189 -420 0 -161 55 -283 189 -420 172 -175
426 -313 795 -433 483 -156 1017 -230 1672 -231 183 -1 333 -2 333 -4 0 -7
-117 -153 -210 -262 -127 -149 -378 -395 -505 -496 -174 -138 -345 -237 -502
-291 -114 -39 -236 -39 -315 0 -69 34 -121 90 -159 171 -49 107 -61 167 -66
356 -4 145 -2 200 16 321 27 186 27 185 -8 220 -23 23 -38 29 -71 29 -83 0
-99 -25 -126 -190 -26 -163 -27 -509 -1 -630 119 -555 590 -673 1167 -293 313
207 674 566 973 968 49 66 90 121 91 122 0 0 64 8 141 18 163 19 338 47 483
77 56 11 105 19 107 16 8 -8 64 -303 76 -401 15 -129 7 -411 -15 -492 -41
-149 -108 -245 -204 -292 -48 -24 -69 -28 -137 -27 -44 0 -109 8 -145 18 -144
38 -369 166 -554 315 -76 61 -94 71 -128 71 -59 0 -98 -42 -98 -106 0 -56 17
-75 179 -195 285 -212 518 -310 741 -310 203 -1 349 77 452 241 83 132 117
267 125 500 6 192 -10 363 -57 589 -16 80 -29 146 -27 146 1 1 67 24 147 50
345 113 604 256 770 425 134 137 189 259 189 420 0 163 -55 285 -194 425 -130
131 -340 258 -595 361 -124 50 -171 51 -211 6 -33 -36 -37 -77 -14 -121 11
-23 36 -37 122 -71 248 -99 430 -207 549 -325 185 -185 185 -365 0 -550 -116
-116 -296 -223 -523 -314 -106 -42 -294 -104 -299 -98 -2 1 -28 76 -59 166
-31 89 -88 238 -127 329 -39 92 -71 178 -71 192 0 14 32 100 71 192 228 534
342 1036 329 1438 -8 237 -42 368 -129 506 -197 314 -614 316 -1075 6 -134
-90 -281 -210 -298 -242 -19 -37 -19 -54 0 -95 18 -37 51 -55 99 -55 26 0 52
16 127 77 177 144 365 255 526 309 115 39 236 40 315 1 97 -48 163 -143 205
-297 29 -104 25 -452 -5 -625 -47 -261 -133 -556 -244 -837 l-51 -129 -87 158
c-298 541 -604 959 -974 1329 -324 324 -600 515 -863 598 -110 34 -233 48
-323 36z m2356 -2902 c35 -97 64 -186 64 -196 0 -17 -17 -23 -137 -46 -166
-31 -320 -56 -350 -56 -19 0 -8 22 85 178 59 97 134 227 167 289 l60 112 23
-52 c13 -29 52 -132 88 -229z"/>
<path d="M2393 3875 c-25 -17 -145 -160 -162 -192 -45 -86 53 -189 138 -143
20 10 151 163 169 197 15 27 15 78 2 104 -24 43 -106 63 -147 34z"/>
<path d="M3522 3375 c-16 -14 -32 -37 -35 -51 -7 -39 11 -92 37 -110 36 -23
232 -54 273 -42 58 16 86 83 58 141 -20 42 -42 52 -155 72 -118 21 -143 19
-178 -10z"/>
<path d="M1824 3086 c-20 -14 -87 -121 -168 -267 -46 -84 -48 -129 -7 -170 24
-23 38 -29 73 -29 26 0 51 7 64 18 22 18 186 300 199 340 9 30 -12 88 -38 107
-27 19 -96 19 -123 1z"/>
<path d="M1265 2977 c-25 -25 -35 -44 -35 -67 0 -57 164 -458 290 -710 119
-238 272 -504 304 -526 27 -18 96 -18 123 1 30 21 47 78 35 113 -5 15 -51 99
-102 187 -155 270 -332 646 -420 892 -37 104 -61 132 -119 140 -36 5 -44 2
-76 -30z"/>
<path d="M2545 2950 c-210 -45 -366 -185 -437 -390 -30 -87 -32 -267 -4 -350
64 -190 196 -322 386 -386 41 -14 84 -19 170 -19 86 0 129 5 170 19 190 64
322 196 386 386 26 77 26 263 0 340 -32 94 -79 172 -141 236 -109 111 -231
164 -390 170 -55 2 -118 -1 -140 -6z m267 -232 c73 -34 146 -106 184 -183 26
-54 29 -70 29 -155 0 -85 -3 -101 -29 -155 -38 -76 -110 -149 -184 -183 -49
-23 -70 -27 -152 -27 -82 0 -103 4 -152 27 -74 34 -146 107 -184 183 -26 54
-29 70 -29 155 0 83 3 102 27 150 51 103 120 166 221 202 75 27 193 21 269
-14z"/>
<path d="M1337 2128 c-27 -27 -107 -236 -107 -279 0 -22 10 -41 35 -66 32 -32
40 -35 77 -30 59 8 81 36 127 163 50 135 51 165 12 205 -39 38 -110 41 -144 7z"/>
<path d="M2303 1213 c-12 -2 -34 -18 -49 -36 -22 -26 -25 -38 -21 -74 4 -34
17 -58 72 -123 76 -91 89 -100 140 -100 55 0 95 44 95 103 0 41 -6 52 -71 130
-62 75 -110 112 -138 106 -3 -1 -16 -4 -28 -6z"/>
</g>
</svg>
