<!-- Generated by IcoMoon.io -->
<svg version="1.1" xmlns="http://www.w3.org/2000/svg" width="32" height="32" viewBox="0 0 32 32">
<title>free-smart-analytics</title>
<path d="M31.333 30.667h-0.667v-19.333c0-0.368-0.299-0.667-0.667-0.667h-4c-0.368 0-0.667 0.299-0.667 0.667v19.333h-2.667v-11.333c0-0.368-0.299-0.667-0.667-0.667h-4c-0.368 0-0.667 0.299-0.667 0.667v11.333h-2.667v-14c0-0.368-0.299-0.667-0.667-0.667h-4c-0.368 0-0.667 0.299-0.667 0.667v14h-2.667v-7.333c0-0.368-0.299-0.667-0.667-0.667h-4c-0.368 0-0.667 0.299-0.667 0.667v7.333h-0.667c-0.368 0-0.667 0.299-0.667 0.667s0.299 0.667 0.667 0.667h30.667c0.368 0 0.667-0.299 0.667-0.667s-0.299-0.667-0.667-0.667z"></path>
<path d="M28 0c-1.471 0-2.667 1.196-2.667 2.667 0 0.493 0.144 0.949 0.377 1.347l-4.364 4.364c-0.397-0.233-0.853-0.377-1.347-0.377-0.836 0-1.575 0.395-2.064 0.999l-3.276-0.935c0-0.021 0.007-0.041 0.007-0.064 0-1.471-1.196-2.667-2.667-2.667s-2.667 1.196-2.667 2.667c0 0.388 0.087 0.753 0.236 1.085l-4.167 3.324c-0.408-0.256-0.887-0.409-1.403-0.409-1.471 0-2.667 1.196-2.667 2.667s1.196 2.667 2.667 2.667 2.667-1.196 2.667-2.667c0-0.468-0.132-0.903-0.345-1.285l4.084-3.257c0.447 0.336 0.995 0.543 1.595 0.543 0.977 0 1.825-0.535 2.289-1.321l3.089 0.881c-0.025 0.144-0.045 0.289-0.045 0.44 0 1.471 1.196 2.667 2.667 2.667s2.667-1.196 2.667-2.667c0-0.493-0.144-0.949-0.377-1.347l4.365-4.365c0.396 0.235 0.852 0.379 1.345 0.379 1.471 0 2.667-1.196 2.667-2.667s-1.196-2.667-2.667-2.667z"></path>
</svg>
