<!-- Generated by IcoMoon.io -->
<svg version="1.1" xmlns="http://www.w3.org/2000/svg" width="32" height="32" viewBox="0 0 32 32">
<title>vk</title>
<path d="M29.774 2.226c-2.296-2.226-5.913-2.226-13.078-2.226h-1.391c-7.165 0-10.783 0-13.078 2.226-2.226 2.296-2.226 5.913-2.226 13.078v1.391c0 7.235 0 10.852 2.226 13.078 2.296 2.226 5.913 2.226 13.078 2.226h1.391c7.235 0 10.852 0 13.078-2.226 2.226-2.296 2.226-5.913 2.226-13.078v-1.391c0-7.165 0-10.783-2.226-13.078zM25.809 22.33h-2.365c-0.904 0-1.183-0.696-2.713-2.296-1.391-1.322-1.948-1.53-2.296-1.53-0.487 0-0.626 0.139-0.626 0.765v2.087c0 0.557-0.209 0.904-1.67 0.904-2.504 0-5.217-1.53-7.096-4.243-2.922-4.035-3.687-7.096-3.687-7.722 0-0.348 0.139-0.626 0.835-0.626h2.365c0.626 0 0.835 0.278 1.043 0.904 1.113 3.339 3.061 6.261 3.826 6.261 0.278 0 0.417-0.139 0.417-0.904v-3.409c-0.070-1.6-0.904-1.739-0.904-2.296 0-0.278 0.209-0.557 0.626-0.557h3.687c0.487 0 0.696 0.278 0.696 0.835v4.591c0 0.487 0.209 0.696 0.348 0.696 0.278 0 0.557-0.139 1.113-0.696 1.67-1.878 2.852-4.8 2.852-4.8 0.139-0.348 0.417-0.626 1.043-0.626h2.365c0.696 0 0.835 0.348 0.696 0.835-0.278 1.391-3.13 5.357-3.13 5.357-0.278 0.417-0.348 0.626 0 1.043 0.278 0.348 1.043 1.043 1.6 1.67 0.974 1.113 1.739 2.087 1.948 2.713 0 0.696-0.278 1.043-0.974 1.043z"></path>
</svg>
