<svg width="142" height="43" viewBox="0 0 142 43" fill="none" xmlns="http://www.w3.org/2000/svg">
<path d="M63.624 21.976H72.048V23.272C72.048 25.672 71.28 27.616 69.744 29.104C68.208 30.592 66.224 31.336 63.792 31.336C61.2 31.336 59.048 30.496 57.336 28.816C55.64 27.12 54.792 25.056 54.792 22.624C54.792 20.176 55.632 18.104 57.312 16.408C59.008 14.712 61.104 13.864 63.6 13.864C65.152 13.864 66.576 14.216 67.872 14.92C69.168 15.624 70.184 16.576 70.92 17.776L68.088 19.408C67.688 18.72 67.08 18.16 66.264 17.728C65.448 17.296 64.552 17.08 63.576 17.08C61.96 17.08 60.64 17.608 59.616 18.664C58.592 19.688 58.08 21.008 58.08 22.624C58.08 24.208 58.6 25.52 59.64 26.56C60.68 27.584 62.072 28.096 63.816 28.096C65.08 28.096 66.136 27.816 66.984 27.256C67.832 26.696 68.408 25.912 68.712 24.904H63.624V21.976ZM77.3558 19V21.064C77.6278 20.312 78.0918 19.744 78.7478 19.36C79.4038 18.96 80.1558 18.76 81.0038 18.76V22.216C80.0598 22.088 79.2118 22.28 78.4598 22.792C77.7238 23.288 77.3558 24.112 77.3558 25.264V31H74.2598V19H77.3558ZM92.5931 29.512C91.3771 30.728 89.8731 31.336 88.0811 31.336C86.2891 31.336 84.7851 30.728 83.5691 29.512C82.3531 28.296 81.7451 26.792 81.7451 25C81.7451 23.224 82.3531 21.728 83.5691 20.512C84.8011 19.28 86.3051 18.664 88.0811 18.664C89.8571 18.664 91.3611 19.28 92.5931 20.512C93.8251 21.744 94.4411 23.24 94.4411 25C94.4411 26.776 93.8251 28.28 92.5931 29.512ZM85.7531 27.376C86.3771 28 87.1531 28.312 88.0811 28.312C89.0091 28.312 89.7851 28 90.4091 27.376C91.0331 26.752 91.3451 25.96 91.3451 25C91.3451 24.04 91.0331 23.248 90.4091 22.624C89.7851 22 89.0091 21.688 88.0811 21.688C87.1531 21.688 86.3771 22 85.7531 22.624C85.1451 23.264 84.8411 24.056 84.8411 25C84.8411 25.944 85.1451 26.736 85.7531 27.376ZM107.622 26.392L109.662 19H112.95L109.134 31H106.182L103.974 23.728L101.766 31H98.8144L94.9984 19H98.2864L100.326 26.368L102.51 19H105.438L107.622 26.392Z" fill="black"/>
<path d="M124.915 22.288C126.387 23.136 127.123 24.416 127.123 26.128C127.123 27.552 126.619 28.72 125.611 29.632C124.603 30.544 123.363 31 121.891 31H114.763V14.2H121.387C122.811 14.2 124.019 14.648 125.011 15.544C126.003 16.44 126.499 17.568 126.499 18.928C126.499 20.32 125.971 21.44 124.915 22.288ZM121.387 17.296H118.075V20.992H121.387C121.899 20.992 122.323 20.816 122.659 20.464C123.011 20.112 123.187 19.672 123.187 19.144C123.187 18.616 123.019 18.176 122.683 17.824C122.347 17.472 121.915 17.296 121.387 17.296ZM118.075 27.904H121.891C122.451 27.904 122.915 27.72 123.283 27.352C123.651 26.968 123.835 26.488 123.835 25.912C123.835 25.352 123.651 24.888 123.283 24.52C122.915 24.136 122.451 23.944 121.891 23.944H118.075V27.904ZM141.002 26.272H131.954C132.354 27.776 133.482 28.528 135.338 28.528C136.522 28.528 137.418 28.128 138.026 27.328L140.522 28.768C139.338 30.48 137.594 31.336 135.29 31.336C133.306 31.336 131.714 30.736 130.514 29.536C129.314 28.336 128.714 26.824 128.714 25C128.714 23.208 129.306 21.704 130.49 20.488C131.658 19.272 133.178 18.664 135.05 18.664C136.826 18.664 138.274 19.272 139.394 20.488C140.546 21.704 141.122 23.208 141.122 25C141.122 25.336 141.082 25.76 141.002 26.272ZM131.906 23.872H138.026C137.85 23.088 137.49 22.488 136.946 22.072C136.418 21.656 135.786 21.448 135.05 21.448C134.218 21.448 133.53 21.664 132.986 22.096C132.442 22.512 132.082 23.104 131.906 23.872Z" fill="#94409B"/>
<g clip-path="url(#clip0)">
<path d="M25.6245 25.8007H35.8772L30.7509 34.3987H20.5017L25.6245 25.8007Z" fill="#989FE3"/>
<path d="M25.6246 25.8007L20.5018 34.3987L15.3755 25.8007L20.5018 17.1993L25.6246 25.8007Z" fill="#EFD8FF"/>
<path d="M10.2525 34.3987L5.12622 25.8007H15.3754L20.5017 34.3987H10.2525Z" fill="#CCD1EE"/>
<path d="M15.3754 25.8007L10.2525 34.3987L5.12622 25.8007L10.2525 17.1993L15.3754 25.8007Z" fill="#E5BFFF"/>
<path opacity="0.3" d="M25.6246 8.59798L20.5018 17.1993L15.3755 8.59798L20.5018 0L25.6246 8.59798Z" fill="#0073BD"/>
<path opacity="0.3" d="M25.6246 8.59802L20.5018 17.1994L15.3755 8.59802H25.6246Z" fill="#0073BD"/>
<path d="M30.7508 34.3987L25.6245 25.8007H35.8771L41 34.3987H30.7508Z" fill="#D6F0F2"/>
<path d="M35.8771 25.8007L30.7508 34.3987L25.6245 25.8007L30.7508 17.1993L35.8771 25.8007Z" fill="#FFFEFF"/>
<path d="M25.6245 25.8007H35.8772L30.7509 34.3987H20.5017L25.6245 25.8007Z" fill="#989FE3"/>
<path d="M25.6246 25.8007L20.5018 34.3987L15.3755 25.8007L20.5018 17.1993L25.6246 25.8007Z" fill="#EFD8FF"/>
<path opacity="0.6" d="M30.7508 17.1993L41 34.3987H20.5017L30.7508 17.1993Z" fill="#3D25D9"/>
<path d="M30.7509 17.1993L20.5018 34.3986L10.2527 17.1993L20.5018 0L30.7509 17.1993Z" fill="#F5A0E8"/>
<path opacity="0.6" d="M10.2526 17.1993H30.7508L20.5017 34.3987H0L10.2526 17.1993Z" fill="#540067"/>
<path d="M15.3755 25.8007H25.6246L20.5018 34.3987H10.2527L15.3755 25.8007Z" fill="#B283D9"/>
<path d="M15.3755 43L10.2527 34.3987H20.5018L25.6246 43H15.3755Z" fill="#D6C8EB"/>
<path d="M30.7508 34.3987L25.6245 43L20.5017 34.3987L25.6245 25.8007L30.7508 34.3987Z" fill="white"/>
<path d="M23.0631 30.098H28.1894L25.6245 34.3987H20.5017L23.0631 30.098Z" fill="#B3BFE3"/>
<path d="M23.0631 30.098L20.5017 25.8007H25.6245L28.1894 30.098H23.0631Z" fill="#D6D7EF"/>
<path d="M23.0633 30.098L20.5019 34.3987L17.937 30.098L20.5019 25.8007L23.0633 30.098Z" fill="white"/>
<path d="M23.0631 38.6993H28.1894L25.6245 43H20.5017L23.0631 38.6993Z" fill="#B2BFE4"/>
<path d="M23.0631 38.6994L20.5017 34.3987H25.6245L28.1894 38.6994H23.0631Z" fill="#D5D7F0"/>
<path d="M23.0633 38.6994L20.5019 43L17.937 38.6994L20.5019 34.3987L23.0633 38.6994Z" fill="white"/>
<path d="M15.3754 34.3987H20.5017L17.9368 38.6994H12.814L15.3754 34.3987Z" fill="#ADABDC"/>
<path d="M15.3754 34.3987L12.814 30.098H17.9368L20.5017 34.3987H15.3754Z" fill="#CFC1E8"/>
<path d="M15.3755 34.3987L12.8141 38.6994L10.2527 34.3987L12.8141 30.098L15.3755 34.3987Z" fill="#FFF0FF"/>
<path d="M17.9369 30.098H23.0632L20.5018 34.3987H15.3755L17.9369 30.098Z" fill="#AD73C0"/>
<path d="M17.9369 30.098L15.3755 25.8007H20.5018L23.0632 30.098H17.9369Z" fill="#D185CB"/>
<path d="M17.9368 30.098L15.3754 34.3987L12.814 30.098L15.3754 25.8007L17.9368 30.098Z" fill="#FFABE3"/>
<path d="M17.9369 38.6993H23.0632L20.5018 43H15.3755L17.9369 38.6993Z" fill="#B297DF"/>
<path d="M17.9369 38.6994L15.3755 34.3987H20.5018L23.0632 38.6994H17.9369Z" fill="#D5ACEB"/>
<path d="M17.9368 38.6994L15.3754 43L12.814 38.6994L15.3754 34.3987L17.9368 38.6994Z" fill="#FFD8FF"/>
<path d="M25.6246 34.3987H30.7509L28.1895 38.6994H23.0632L25.6246 34.3987Z" fill="#B2BDE4"/>
<path d="M25.6246 34.3987L23.0632 30.098H28.1895L30.7509 34.3987H25.6246Z" fill="#D6D4F0"/>
<path d="M25.6245 34.3987L23.0631 38.6994L20.5017 34.3987L23.0631 30.098L25.6245 34.3987Z" fill="white"/>
<path d="M20.5019 34.3987H25.6247L23.0633 38.6994H17.937L20.5019 34.3987Z" fill="#B2A6D8"/>
<path d="M20.5019 34.3987L17.937 30.098H23.0633L25.6247 34.3987H20.5019Z" fill="#D5BDE5"/>
<path d="M20.5018 34.3987L17.9369 38.6994L15.3755 34.3987L17.9369 30.098L20.5018 34.3987Z" fill="#FFEBFE"/>
</g>
<defs>
<clipPath id="clip0">
<rect width="41" height="43" fill="white"/>
</clipPath>
</defs>
</svg>
