<svg width="152" height="43" viewBox="0 0 152 43" fill="none" xmlns="http://www.w3.org/2000/svg">
<path d="M60.228 18.472H70.056V19.984C70.056 22.784 69.16 25.052 67.368 26.788C65.576 28.524 63.2613 29.392 60.424 29.392C57.4 29.392 54.8893 28.412 52.892 26.452C50.9133 24.4733 49.924 22.0653 49.924 19.228C49.924 16.372 50.904 13.9547 52.864 11.976C54.8427 9.99733 57.288 9.008 60.2 9.008C62.0107 9.008 63.672 9.41867 65.184 10.24C66.696 11.0613 67.8813 12.172 68.74 13.572L65.436 15.476C64.9693 14.6733 64.26 14.02 63.308 13.516C62.356 13.012 61.3107 12.76 60.172 12.76C58.2867 12.76 56.7467 13.376 55.552 14.608C54.3573 15.8027 53.76 17.3427 53.76 19.228C53.76 21.076 54.3667 22.6067 55.58 23.82C56.7933 25.0147 58.4173 25.612 60.452 25.612C61.9267 25.612 63.1587 25.2853 64.148 24.632C65.1373 23.9787 65.8093 23.064 66.164 21.888H60.228V18.472ZM76.2484 15V17.408C76.5657 16.5307 77.107 15.868 77.8724 15.42C78.6377 14.9533 79.515 14.72 80.5044 14.72V18.752C79.403 18.6027 78.4137 18.8267 77.5364 19.424C76.6777 20.0027 76.2484 20.964 76.2484 22.308V29H72.6364V15H76.2484ZM94.0253 27.264C92.6066 28.6827 90.852 29.392 88.7613 29.392C86.6706 29.392 84.916 28.6827 83.4973 27.264C82.0786 25.8453 81.3693 24.0907 81.3693 22C81.3693 19.928 82.0786 18.1827 83.4973 16.764C84.9346 15.3267 86.6893 14.608 88.7613 14.608C90.8333 14.608 92.588 15.3267 94.0253 16.764C95.4626 18.2013 96.1813 19.9467 96.1813 22C96.1813 24.072 95.4626 25.8267 94.0253 27.264ZM86.0453 24.772C86.7733 25.5 87.6786 25.864 88.7613 25.864C89.844 25.864 90.7493 25.5 91.4773 24.772C92.2053 24.044 92.5693 23.12 92.5693 22C92.5693 20.88 92.2053 19.956 91.4773 19.228C90.7493 18.5 89.844 18.136 88.7613 18.136C87.6786 18.136 86.7733 18.5 86.0453 19.228C85.336 19.9747 84.9813 20.8987 84.9813 22C84.9813 23.1013 85.336 24.0253 86.0453 24.772ZM111.559 23.624L113.939 15H117.775L113.323 29H109.879L107.303 20.516L104.727 29H101.283L96.8314 15H100.667L103.047 23.596L105.595 15H109.011L111.559 23.624Z" fill="black"/>
<path d="M131.734 18.836C133.452 19.8253 134.31 21.3187 134.31 23.316C134.31 24.9773 133.722 26.34 132.546 27.404C131.37 28.468 129.924 29 128.206 29H119.89V9.4H127.618C129.28 9.4 130.689 9.92267 131.846 10.968C133.004 12.0133 133.582 13.3293 133.582 14.916C133.582 16.54 132.966 17.8467 131.734 18.836ZM127.618 13.012H123.754V17.324H127.618C128.216 17.324 128.71 17.1187 129.102 16.708C129.513 16.2973 129.718 15.784 129.718 15.168C129.718 14.552 129.522 14.0387 129.13 13.628C128.738 13.2173 128.234 13.012 127.618 13.012ZM123.754 25.388H128.206C128.86 25.388 129.401 25.1733 129.83 24.744C130.26 24.296 130.474 23.736 130.474 23.064C130.474 22.4107 130.26 21.8693 129.83 21.44C129.401 20.992 128.86 20.768 128.206 20.768H123.754V25.388ZM150.502 23.484H139.946C140.413 25.2387 141.729 26.116 143.894 26.116C145.276 26.116 146.321 25.6493 147.03 24.716L149.942 26.396C148.561 28.3933 146.526 29.392 143.838 29.392C141.524 29.392 139.666 28.692 138.266 27.292C136.866 25.892 136.166 24.128 136.166 22C136.166 19.9093 136.857 18.1547 138.238 16.736C139.601 15.3173 141.374 14.608 143.558 14.608C145.63 14.608 147.32 15.3173 148.626 16.736C149.97 18.1547 150.642 19.9093 150.642 22C150.642 22.392 150.596 22.8867 150.502 23.484ZM139.89 20.684H147.03C146.825 19.7693 146.405 19.0693 145.77 18.584C145.154 18.0987 144.417 17.856 143.558 17.856C142.588 17.856 141.785 18.108 141.15 18.612C140.516 19.0973 140.096 19.788 139.89 20.684Z" fill="#8E4CA4"/>
<g clip-path="url(#clip0)">
<path d="M25.6245 25.8008H35.8772L30.7509 34.3987H20.5017L25.6245 25.8008Z" fill="#989FE3"/>
<path d="M25.6246 25.8006L20.5018 34.3985L15.3755 25.8006L20.5018 17.1992L25.6246 25.8006Z" fill="#EFD8FF"/>
<path d="M10.2525 34.3987L5.12622 25.8008H15.3754L20.5017 34.3987H10.2525Z" fill="#CCD1EE"/>
<path d="M15.3754 25.8006L10.2525 34.3985L5.12622 25.8006L10.2525 17.1992L15.3754 25.8006Z" fill="#E5BFFF"/>
<path opacity="0.3" d="M25.6246 8.59798L20.5018 17.1993L15.3755 8.59798L20.5018 0L25.6246 8.59798Z" fill="#0073BD"/>
<path opacity="0.3" d="M25.6246 8.59814L20.5018 17.1995L15.3755 8.59814H25.6246Z" fill="#0073BD"/>
<path d="M30.7508 34.3987L25.6245 25.8008H35.8771L41 34.3987H30.7508Z" fill="#D6F0F2"/>
<path d="M35.8771 25.8006L30.7508 34.3985L25.6245 25.8006L30.7508 17.1992L35.8771 25.8006Z" fill="#FFFEFF"/>
<path d="M25.6245 25.8008H35.8772L30.7509 34.3987H20.5017L25.6245 25.8008Z" fill="#989FE3"/>
<path d="M25.6246 25.8006L20.5018 34.3985L15.3755 25.8006L20.5018 17.1992L25.6246 25.8006Z" fill="#EFD8FF"/>
<path opacity="0.6" d="M30.7508 17.1992L41 34.3985H20.5017L30.7508 17.1992Z" fill="#3D25D9"/>
<path d="M30.7509 17.1993L20.5018 34.3986L10.2527 17.1993L20.5018 0L30.7509 17.1993Z" fill="#F5A0E8"/>
<path opacity="0.6" d="M10.2526 17.1992H30.7508L20.5017 34.3985H0L10.2526 17.1992Z" fill="#540067"/>
<path d="M15.3755 25.8008H25.6246L20.5018 34.3987H10.2527L15.3755 25.8008Z" fill="#B283D9"/>
<path d="M15.3755 43.0003L10.2527 34.3989H20.5018L25.6246 43.0003H15.3755Z" fill="#D6C8EB"/>
<path d="M30.7508 34.3988L25.6245 43.0001L20.5017 34.3988L25.6245 25.8008L30.7508 34.3988Z" fill="white"/>
<path d="M23.0631 30.0981H28.1894L25.6245 34.3988H20.5017L23.0631 30.0981Z" fill="#B3BFE3"/>
<path d="M23.0631 30.0981L20.5017 25.8008H25.6245L28.1894 30.0981H23.0631Z" fill="#D6D7EF"/>
<path d="M23.0633 30.0981L20.5019 34.3987L17.937 30.0981L20.5019 25.8008L23.0633 30.0981Z" fill="white"/>
<path d="M23.0631 38.6992H28.1894L25.6245 42.9999H20.5017L23.0631 38.6992Z" fill="#B2BFE4"/>
<path d="M23.0631 38.6996L20.5017 34.3989H25.6245L28.1894 38.6996H23.0631Z" fill="#D5D7F0"/>
<path d="M23.0633 38.6996L20.5019 43.0003L17.937 38.6996L20.5019 34.3989L23.0633 38.6996Z" fill="white"/>
<path d="M15.3754 34.3989H20.5017L17.9368 38.6996H12.814L15.3754 34.3989Z" fill="#ADABDC"/>
<path d="M15.3754 34.3988L12.814 30.0981H17.9368L20.5017 34.3988H15.3754Z" fill="#CFC1E8"/>
<path d="M15.3755 34.3988L12.8141 38.6995L10.2527 34.3988L12.8141 30.0981L15.3755 34.3988Z" fill="#FFF0FF"/>
<path d="M17.9369 30.0981H23.0632L20.5018 34.3988H15.3755L17.9369 30.0981Z" fill="#AD73C0"/>
<path d="M17.9369 30.0981L15.3755 25.8008H20.5018L23.0632 30.0981H17.9369Z" fill="#D185CB"/>
<path d="M17.9368 30.0981L15.3754 34.3987L12.814 30.0981L15.3754 25.8008L17.9368 30.0981Z" fill="#FFABE3"/>
<path d="M17.9369 38.6992H23.0632L20.5018 42.9999H15.3755L17.9369 38.6992Z" fill="#B297DF"/>
<path d="M17.9369 38.6996L15.3755 34.3989H20.5018L23.0632 38.6996H17.9369Z" fill="#D5ACEB"/>
<path d="M17.9368 38.6996L15.3754 43.0003L12.814 38.6996L15.3754 34.3989L17.9368 38.6996Z" fill="#FFD8FF"/>
<path d="M25.6246 34.3989H30.7509L28.1895 38.6996H23.0632L25.6246 34.3989Z" fill="#B2BDE4"/>
<path d="M25.6246 34.3988L23.0632 30.0981H28.1895L30.7509 34.3988H25.6246Z" fill="#D6D4F0"/>
<path d="M25.6245 34.3988L23.0631 38.6995L20.5017 34.3988L23.0631 30.0981L25.6245 34.3988Z" fill="white"/>
<path d="M20.5019 34.3989H25.6247L23.0633 38.6996H17.937L20.5019 34.3989Z" fill="#B2A6D8"/>
<path d="M20.5019 34.3988L17.937 30.0981H23.0633L25.6247 34.3988H20.5019Z" fill="#D5BDE5"/>
<path d="M20.5018 34.3988L17.9369 38.6995L15.3755 34.3988L17.9369 30.0981L20.5018 34.3988Z" fill="#FFEBFE"/>
</g>
<defs>
<clipPath id="clip0">
<rect width="41" height="43" fill="white"/>
</clipPath>
</defs>
</svg>
