<svg aria-hidden="true" style="position: absolute; width: 0; height: 0; overflow: hidden;" version="1.1" xmlns="http://www.w3.org/2000/svg" xmlns:xlink="http://www.w3.org/1999/xlink">
<g id="icon-arrow-bottom" viewBox="0 0 23 32">
<path d="M12.733 31.441l0.002-0.002 9.585-9.953c0.718-0.746 0.715-1.952-0.006-2.694s-1.889-0.739-2.607 0.006l-6.435 6.682v-23.577c0-1.052-0.825-1.905-1.843-1.905s-1.843 0.853-1.843 1.905v23.577l-6.435-6.682c-0.718-0.746-1.885-0.748-2.607-0.006s-0.724 1.948-0.006 2.694l9.587 9.954c0.721 0.746 1.891 0.744 2.61 0z"/>
</g>
<g id="icon-arrow-next" viewBox="0 0 45 32">
<path d="M44.018 14.173l-13.936-13.422c-1.044-1.005-2.732-1.002-3.771 0.009s-1.035 2.644 0.009 3.65l9.355 9.010h-33.008c-1.473 0-2.667 1.155-2.667 2.581s1.194 2.581 2.667 2.581h33.008l-9.355 9.010c-1.044 1.005-1.048 2.639-0.009 3.649s2.728 1.014 3.771 0.009l13.936-13.422c1.044-1.009 1.041-2.648 0-3.653z"/>
</g>
<g id="icon-arrow-prev" viewBox="0 0 45 32">
<path d="M0.782 17.827l0.002 0.002 13.934 13.419c1.044 1.005 2.732 1.002 3.771-0.009s1.035-2.644-0.009-3.649l-9.355-9.010h33.008c1.473 0 2.667-1.155 2.667-2.581s-1.194-2.581-2.667-2.581h-33.008l9.355-9.010c1.044-1.005 1.048-2.639 0.009-3.65s-2.728-1.014-3.771-0.009l-13.936 13.422c-1.044 1.009-1.041 2.648 0 3.653z"/>
</g>
<g id="icon-arrow-top" viewBox="0 0 27 32">
<path d="M11.169 29.686c-0.021-0.127-0.030-0.256-0.028-0.385v-21.948l-0.221 0.479c-0.219 0.468-0.518 0.893-0.883 1.258l-6.1 6.155c-0.767 0.811-2.001 0.947-2.923 0.323-0.983-0.726-1.197-2.119-0.477-3.111 0.058-0.080 0.122-0.156 0.19-0.228l11.031-11.13c0.861-0.87 2.258-0.871 3.12-0.002l0.002 0.002 11.031 11.13c0.86 0.87 0.858 2.28-0.004 3.148-0.068 0.068-0.14 0.132-0.216 0.191-0.923 0.624-2.156 0.488-2.923-0.323l-6.111-6.144c-0.324-0.327-0.596-0.702-0.805-1.113l-0.298-0.668v21.859c0.042 1.137-0.745 2.135-1.853 2.348-1.203 0.197-2.336-0.627-2.531-1.841z"/>
</g>
<g id="icon-check" viewBox="0 0 32 32">
<path d="M16 0c-8.822 0-16 7.178-16 16s7.178 16 16 16c8.822 0 16-7.178 16-16s-7.178-16-16-16zM24.942 11.789l-10.226 10.145c-0.601 0.601-1.564 0.642-2.206 0.040l-5.413-4.932c-0.642-0.601-0.682-1.604-0.12-2.246 0.601-0.642 1.604-0.682 2.246-0.080l4.291 3.93 9.143-9.143c0.642-0.642 1.644-0.642 2.286 0s0.642 1.644 0 2.286z"/>
</g>
<g id="icon-facebook" viewBox="0 0 32 32">
<path d="M16 0c-8.837 0-16 7.194-16 16.067 0 7.958 5.768 14.549 13.332 15.826v-12.474h-3.86v-4.489h3.86v-3.31c0-3.84 2.336-5.933 5.748-5.933 1.634 0 3.039 0.122 3.446 0.176v4.014l-2.367 0.001c-1.855 0-2.213 0.885-2.213 2.184v2.865h4.427l-0.577 4.489h-3.849v12.583c7.916-0.968 14.054-7.726 14.054-15.938 0-8.869-7.164-16.062-16-16.062z"/>
</g>
<g id="icon-instagram" viewBox="0 0 33 32">
<path d="M32.597 9.403c-0.078-1.703-0.348-2.866-0.744-3.884-0.402-1.068-1.032-2.035-1.846-2.834-0.799-0.814-1.766-1.444-2.834-1.846-1.018-0.395-2.181-0.666-3.884-0.743-1.706-0.078-2.251-0.097-6.597-0.097s-4.89 0.019-6.597 0.096c-1.703 0.078-2.866 0.348-3.884 0.744-1.068 0.402-2.035 1.032-2.834 1.845-0.814 0.799-1.444 1.766-1.846 2.834-0.395 1.018-0.666 2.181-0.743 3.884-0.078 1.707-0.097 2.251-0.097 6.597s0.019 4.891 0.097 6.597c0.078 1.703 0.348 2.866 0.744 3.884 0.402 1.067 1.031 2.035 1.845 2.834 0.799 0.814 1.766 1.444 2.834 1.846 1.018 0.396 2.181 0.666 3.884 0.744 1.707 0.078 2.251 0.096 6.597 0.096s4.89-0.018 6.597-0.096c1.703-0.078 2.866-0.348 3.884-0.744 2.149-0.831 3.848-2.53 4.679-4.679 0.396-1.018 0.666-2.181 0.744-3.884 0.078-1.707 0.096-2.251 0.096-6.597s-0.019-4.89-0.096-6.597zM29.717 22.466c-0.071 1.56-0.332 2.407-0.551 2.971-0.538 1.395-1.641 2.498-3.037 3.037-0.564 0.219-1.411 0.48-2.971 0.551-1.687 0.077-2.193 0.093-6.465 0.093s-4.779-0.016-6.466-0.093c-1.56-0.071-2.407-0.332-2.971-0.551-0.695-0.257-1.324-0.666-1.84-1.197-0.532-0.516-0.94-1.145-1.197-1.84-0.219-0.564-0.48-1.411-0.551-2.971-0.077-1.687-0.093-2.193-0.093-6.465s0.016-4.778 0.093-6.466c0.071-1.56 0.332-2.407 0.551-2.971 0.257-0.695 0.666-1.324 1.197-1.84 0.516-0.532 1.145-0.94 1.84-1.197 0.564-0.219 1.411-0.48 2.971-0.551 1.687-0.077 2.193-0.093 6.465-0.093s4.778 0.016 6.465 0.094c1.56 0.071 2.407 0.332 2.971 0.551 0.695 0.257 1.324 0.666 1.84 1.197 0.531 0.516 0.94 1.145 1.197 1.84 0.219 0.564 0.48 1.411 0.551 2.971 0.077 1.687 0.093 2.193 0.093 6.465s-0.016 4.778-0.093 6.466z"/>
<path d="M16.693 7.784c-4.538 0-8.216 3.679-8.216 8.216s3.678 8.216 8.216 8.216c4.538 0 8.216-3.678 8.216-8.216s-3.678-8.216-8.216-8.216zM16.693 21.333c-2.945-0-5.333-2.388-5.333-5.334s2.388-5.333 5.333-5.333c2.946 0 5.333 2.388 5.333 5.333s-2.388 5.334-5.334 5.334z"/>
<path d="M27.154 7.459c0 1.060-0.86 1.92-1.92 1.92s-1.92-0.86-1.92-1.92c0-1.061 0.86-1.92 1.92-1.92s1.92 0.86 1.92 1.92z"/>
</g>
<g id="icon-telegram" viewBox="0 0 32 32">
<path d="M16 0c-8.835 0-16 7.165-16 16s7.165 16 16 16 16-7.165 16-16-7.165-16-16-16zM24.070 10.017c-0.278 2.574-1.322 8.696-1.809 11.548-0.209 1.183-0.696 1.6-1.113 1.67-0.904 0.070-1.6-0.626-2.504-1.183-1.391-0.904-2.226-1.53-3.548-2.365-1.6-1.043-0.557-1.6 0.348-2.574 0.209-0.278 4.313-3.965 4.383-4.313 0-0.070 0-0.209-0.070-0.278s-0.209-0.070-0.348 0c-0.139 0-2.365 1.53-6.748 4.452-0.626 0.417-1.183 0.626-1.739 0.626s-1.67-0.348-2.504-0.557c-0.974-0.348-1.809-0.487-1.739-1.043 0.070-0.278 0.417-0.557 1.183-0.904 4.661-2.017 7.791-3.339 9.322-4.035 4.452-1.878 5.357-2.157 5.983-2.157 0.139 0 0.417 0 0.626 0.209 0.139 0.139 0.209 0.278 0.209 0.417s0.070 0.278 0.070 0.487z"/>
</g>
<g id="icon-twitter" viewBox="0 0 40 32">
<path d="M12.512 32c15.014 0 23.224-12.31 23.224-22.985 0-0.35-0.007-0.698-0.023-1.044 1.593-1.14 2.979-2.563 4.072-4.183-1.462 0.643-3.036 1.076-4.687 1.272 1.685-1 2.979-2.582 3.589-4.468-1.577 0.925-3.324 1.598-5.183 1.961-1.489-1.57-3.61-2.552-5.958-2.552-4.507 0-8.163 3.618-8.163 8.077 0 0.634 0.072 1.251 0.212 1.842-6.784-0.338-12.799-3.552-16.825-8.44-0.701 1.194-1.105 2.581-1.105 4.061 0 2.802 1.441 5.277 3.632 6.724-1.339-0.041-2.597-0.405-3.697-1.010-0.001 0.034-0.001 0.067-0.001 0.103 0 3.912 2.813 7.179 6.549 7.919-0.686 0.185-1.408 0.284-2.152 0.284-0.525 0-1.037-0.051-1.534-0.146 1.039 3.21 4.053 5.545 7.625 5.611-2.794 2.167-6.313 3.458-10.138 3.458-0.658 0-1.308-0.037-1.947-0.112 3.612 2.291 7.902 3.629 12.512 3.629z"/>
</g>
<g id="icon-vk" viewBox="0 0 32 32">
<path d="M29.774 2.226c-2.296-2.226-5.913-2.226-13.078-2.226h-1.391c-7.165 0-10.783 0-13.078 2.226-2.226 2.296-2.226 5.913-2.226 13.078v1.391c0 7.235 0 10.852 2.226 13.078 2.296 2.226 5.913 2.226 13.078 2.226h1.391c7.235 0 10.852 0 13.078-2.226 2.226-2.296 2.226-5.913 2.226-13.078v-1.391c0-7.165 0-10.783-2.226-13.078zM25.809 22.33h-2.365c-0.904 0-1.183-0.696-2.713-2.296-1.391-1.322-1.948-1.53-2.296-1.53-0.487 0-0.626 0.139-0.626 0.765v2.087c0 0.557-0.209 0.904-1.67 0.904-2.504 0-5.217-1.53-7.096-4.243-2.922-4.035-3.687-7.096-3.687-7.722 0-0.348 0.139-0.626 0.835-0.626h2.365c0.626 0 0.835 0.278 1.043 0.904 1.113 3.339 3.061 6.261 3.826 6.261 0.278 0 0.417-0.139 0.417-0.904v-3.409c-0.070-1.6-0.904-1.739-0.904-2.296 0-0.278 0.209-0.557 0.626-0.557h3.687c0.487 0 0.696 0.278 0.696 0.835v4.591c0 0.487 0.209 0.696 0.348 0.696 0.278 0 0.557-0.139 1.113-0.696 1.67-1.878 2.852-4.8 2.852-4.8 0.139-0.348 0.417-0.626 1.043-0.626h2.365c0.696 0 0.835 0.348 0.696 0.835-0.278 1.391-3.13 5.357-3.13 5.357-0.278 0.417-0.348 0.626 0 1.043 0.278 0.348 1.043 1.043 1.6 1.67 0.974 1.113 1.739 2.087 1.948 2.713 0 0.696-0.278 1.043-0.974 1.043z"/>
</g>

<g id="icon-customer-reviews" viewBox="0 0 48 46">
<path d="M36.5157 45.9999C35.9158 45.9999 35.3138 45.8557 34.7586 45.5636L24.4288 40.1291C24.1604 39.9881 23.84 39.9881 23.5715 40.1291L13.2414 45.5636C11.9798 46.2274 10.4743 46.1282 9.31234 45.3051C8.12874 44.4673 7.54536 43.0623 7.78963 41.6386L9.76241 30.1284C9.81698 29.8105 9.71297 29.4878 9.48482 29.265L1.1275 21.1138C0.0973432 20.1087 -0.260446 18.6381 0.193657 17.2753C0.642633 15.928 1.79913 14.9636 3.21161 14.7581L14.7608 13.0788C15.0644 13.0348 15.3285 12.8409 15.4669 12.56L20.6323 2.08781C21.2673 0.800007 22.5579 0 24 0C25.4421 0 26.7327 0.800007 27.3681 2.08781L32.5331 12.56C32.6715 12.8405 32.9356 13.0348 33.2392 13.0788L44.7884 14.7581C46.2009 14.9636 47.3574 15.928 47.8063 17.2753C48.2604 18.6378 47.9027 20.1087 46.8725 21.1135L38.5152 29.265C38.287 29.4878 38.183 29.8105 38.2376 30.1281L40.2104 41.6382C40.4546 43.062 39.8713 44.4669 38.6877 45.3051C38.0373 45.7659 37.2785 45.9999 36.5157 45.9999Z"/>
</g>
<g id="icon-push-notifications" viewBox="0 0 44 51">
<path d="M13.1078 46.3991C14.3003 49.1057 16.9991 50.9999 20.1316 50.9999C23.2642 50.9999 25.9629 49.1057 27.1555 46.3991H13.1078Z"/>
<path d="M20.1311 4.87244C22.1982 4.87244 24.1831 5.23861 26.0251 5.90899V5.6812C26.0251 2.5485 23.4865 -0.00012207 20.3661 -0.00012207H19.8971C16.7767 -0.00012207 14.238 2.5485 14.238 5.6812V5.90609C16.079 5.23771 18.0633 4.87244 20.1311 4.87244Z"/>
<path d="M34.7605 27.723C28.3596 27.4195 23.2632 22.1338 23.2632 15.6578C23.2632 13.1338 24.0374 10.7907 25.3612 8.85278C23.7393 8.21557 21.9751 7.86563 20.1311 7.86563C12.1949 7.86563 5.73825 14.3474 5.73825 22.3149C5.73825 26.7307 5.30375 32.9162 3.23369 37.3072C2.10658 39.6983 0.980767 40.4886 0.831195 40.586C0.200905 40.8783 -0.109768 41.5538 0.035133 42.2381C0.181525 42.9294 0.826225 43.4059 1.53006 43.4059H38.7331C39.437 43.4059 40.0816 42.9293 40.228 42.2381C40.373 41.5537 40.0622 40.8783 39.4319 40.586C39.2823 40.4887 38.1566 39.6983 37.0294 37.3072C35.7201 34.5298 35.0651 31.0344 34.7605 27.723Z"/>
<path d="M43.8421 15.6578C43.8421 20.3522 40.0365 24.1578 35.3421 24.1578C30.6477 24.1578 26.8421 20.3522 26.8421 15.6578C26.8421 10.9634 30.6477 7.15777 35.3421 7.15777C40.0365 7.15777 43.8421 10.9634 43.8421 15.6578Z"/>
</g>
<g id="icon-free-smart-analytics" viewBox="0 0 32 32">
<path d="M31.333 30.667h-0.667v-19.333c0-0.368-0.299-0.667-0.667-0.667h-4c-0.368 0-0.667 0.299-0.667 0.667v19.333h-2.667v-11.333c0-0.368-0.299-0.667-0.667-0.667h-4c-0.368 0-0.667 0.299-0.667 0.667v11.333h-2.667v-14c0-0.368-0.299-0.667-0.667-0.667h-4c-0.368 0-0.667 0.299-0.667 0.667v14h-2.667v-7.333c0-0.368-0.299-0.667-0.667-0.667h-4c-0.368 0-0.667 0.299-0.667 0.667v7.333h-0.667c-0.368 0-0.667 0.299-0.667 0.667s0.299 0.667 0.667 0.667h30.667c0.368 0 0.667-0.299 0.667-0.667s-0.299-0.667-0.667-0.667z"/>
<path d="M28 0c-1.471 0-2.667 1.196-2.667 2.667 0 0.493 0.144 0.949 0.377 1.347l-4.364 4.364c-0.397-0.233-0.853-0.377-1.347-0.377-0.836 0-1.575 0.395-2.064 0.999l-3.276-0.935c0-0.021 0.007-0.041 0.007-0.064 0-1.471-1.196-2.667-2.667-2.667s-2.667 1.196-2.667 2.667c0 0.388 0.087 0.753 0.236 1.085l-4.167 3.324c-0.408-0.256-0.887-0.409-1.403-0.409-1.471 0-2.667 1.196-2.667 2.667s1.196 2.667 2.667 2.667 2.667-1.196 2.667-2.667c0-0.468-0.132-0.903-0.345-1.285l4.084-3.257c0.447 0.336 0.995 0.543 1.595 0.543 0.977 0 1.825-0.535 2.289-1.321l3.089 0.881c-0.025 0.144-0.045 0.289-0.045 0.44 0 1.471 1.196 2.667 2.667 2.667s2.667-1.196 2.667-2.667c0-0.493-0.144-0.949-0.377-1.347l4.365-4.365c0.396 0.235 0.852 0.379 1.345 0.379 1.471 0 2.667-1.196 2.667-2.667s-1.196-2.667-2.667-2.667z"/>
</g>
<g id="icon-submit-in-1-click" viewBox="0 0 31 32">
<path d="M30.468 26.641l-6.124-6.124 4.369-2.523c0.341-0.197 0.54-0.572 0.512-0.965s-0.279-0.736-0.645-0.882l-19.482-7.771c-0.382-0.153-0.818-0.063-1.109 0.228s-0.381 0.727-0.228 1.109l7.77 19.484c0.146 0.366 0.489 0.617 0.882 0.645s0.768-0.17 0.965-0.512l2.523-4.369 6.123 6.124c0.193 0.193 0.455 0.301 0.728 0.301s0.535-0.108 0.728-0.301l2.988-2.989c0.402-0.402 0.402-1.053-0-1.455z"/>
<path d="M4.517 3.676c-0.402-0.402-1.053-0.402-1.455 0s-0.402 1.053 0 1.455l2.286 2.286c0.201 0.201 0.464 0.301 0.728 0.301s0.527-0.101 0.728-0.301c0.402-0.402 0.402-1.053 0-1.455l-2.286-2.286z"/>
<path d="M5.291 10.79c0-0.568-0.461-1.029-1.029-1.029h-3.233c-0.568 0-1.029 0.461-1.029 1.029s0.461 1.029 1.029 1.029h3.233c0.568-0 1.029-0.461 1.029-1.029z"/>
<path d="M4.874 13.966l-2.287 2.287c-0.402 0.402-0.402 1.053 0 1.455 0.201 0.201 0.464 0.301 0.728 0.301s0.527-0.101 0.728-0.301l2.287-2.286c0.402-0.402 0.402-1.053 0-1.455s-1.053-0.402-1.455 0z"/>
<path d="M10.175 5.906c0.568 0 1.029-0.461 1.029-1.029v-3.234c0-0.568-0.461-1.029-1.029-1.029s-1.029 0.461-1.029 1.029v3.234c0 0.568 0.461 1.029 1.029 1.029z"/>
<path d="M14.078 7.245c0.263 0 0.527-0.101 0.728-0.301l2.286-2.286c0.402-0.402 0.402-1.053 0-1.455s-1.053-0.402-1.455 0l-2.286 2.286c-0.402 0.402-0.402 1.053 0 1.455 0.201 0.201 0.464 0.301 0.728 0.301z"/>
</g>
<g id="icon-qr-code-preview" viewBox="0 0 22 32">
<path d="M2.010 0h18.089c1.109 0 2.010 0.898 2.010 2v28c0 1.104-0.9 2-2.010 2h-18.089c-1.107 0-2.010-0.896-2.010-2v-28c0-1.102 0.902-2 2.010-2zM20.079 26h0.020v-22h-18.089v0.020h-0.020v22h18.089v-0.020zM11.306 30.537c0.892 0 1.615-0.72 1.615-1.607s-0.723-1.607-1.615-1.607-1.615 0.72-1.615 1.607c0 0.888 0.723 1.607 1.615 1.607z"/>
<path d="M9.025 8h-4.020c-0.555 0-1.005 0.448-1.005 1v4c0 0.552 0.45 1 1.005 1h4.020c0.555 0 1.005-0.448 1.005-1v-4c0-0.552-0.45-1-1.005-1zM8.021 12h-2.010v-2h2.010v2z"/>
<path d="M17.064 8h-4.020c-0.555 0-1.005 0.448-1.005 1v4c0 0.552 0.45 1 1.005 1h4.020c0.555 0 1.005-0.448 1.005-1v-4c0-0.552-0.45-1-1.005-1zM16.059 12h-2.010v-2h2.010v2z"/>
<path d="M9.025 16h-4.020c-0.555 0-1.005 0.448-1.005 1v4c0 0.552 0.45 1 1.005 1h4.020c0.555 0 1.005-0.448 1.005-1v-4c0-0.552-0.45-1-1.005-1zM8.021 20h-2.010v-2h2.010v2z"/>
<path d="M14.049 16h-2.010v2h2.010v-2z"/>
<path d="M16.060 18v2h-2.010v2h3.015c0.555 0 1.005-0.448 1.005-1v-3h-2.010z"/>
</g>
<g id="icon-drag-drop-editor" viewBox="0 0 32 32">
<path d="M29.091 0h-26.182c-1.604 0-2.909 1.305-2.909 2.909v26.182c0 1.604 1.305 2.909 2.909 2.909h26.182c1.604 0 2.909-1.305 2.909-2.909v-26.182c-0-1.604-1.305-2.909-2.909-2.909zM9.455 2.909c0.402 0 0.727 0.326 0.727 0.727s-0.326 0.727-0.727 0.727c-0.402 0-0.727-0.326-0.727-0.727s0.326-0.727 0.727-0.727zM6.545 2.909c0.402 0 0.727 0.326 0.727 0.727s-0.326 0.727-0.727 0.727c-0.402 0-0.727-0.326-0.727-0.727s0.326-0.727 0.727-0.727zM3.636 2.909c0.402 0 0.727 0.325 0.727 0.727s-0.326 0.727-0.727 0.727-0.727-0.326-0.727-0.727c0-0.402 0.326-0.727 0.727-0.727zM29.091 29.091h-26.182v-21.818h26.182v21.818z"/>
<path d="M5.818 24.731c0.804 0 1.459-0.655 1.459-1.459 0-0.525-0.294-0.965-0.712-1.222 0.134-2.316 1.338-6.553 8.215-6.753 0.258 0.415 0.696 0.707 1.219 0.707 0.804 0 1.459-0.655 1.459-1.459s-0.655-1.459-1.459-1.459c-0.54 0-0.994 0.309-1.246 0.747-6.807 0.2-9.438 4.23-9.646 8.192-0.439 0.252-0.748 0.706-0.748 1.247 0 0.804 0.655 1.459 1.459 1.459z"/>
<path d="M19.396 25.413c0.078 0.028 0.159 0.041 0.24 0.041 0.216 0 0.428-0.097 0.568-0.273l2.69-3.364h4.014c0.308 0 0.584-0.195 0.686-0.487s0.010-0.616-0.232-0.809l-7.273-5.818c-0.22-0.175-0.516-0.21-0.77-0.087-0.251 0.121-0.412 0.376-0.412 0.656v9.455c0 0.309 0.195 0.584 0.487 0.686z"/>
</g>
<g id="icon-remove" viewBox="0 0 11 11">
<path d="M8 5V4h1V3h1V2h1V0H9v1H8v1H7v1H6v1H5V3H4V2H3V1H2V0H0v2h1v1h1v1h1v1h1v1H3v1H2v1H1v1H0v2h2v-1h1V9h1V8h1V7h1v1h1v1h1v1h1v1h2V9h-1V8H9V7H8V6H7V5z"/>
</g>
<g id="icon-edit" viewBox="0 0 14 16">
	<polygon points="10,3 11,3 11,4 12,4 12,3 13,3 13,2 12,2 12,1 11,1 11,0 10,0 10,1 9,1 9,2 10,2"/>
	<rect y="14" width="14" height="2"/>
	<polygon points="4,11 5,11 5,10 6,10 6,9 7,9 7,8 8,8 8,7 9,7 9,6 10,6 10,4 9,4 9,3 7,3 7,4 6,4 6,5 5,5 5,6 4,6 4,7 3,7 3,8 2,8 2,9 1,9 1,12 4,12"/>
</g>
<g id="icon-min-arrow-next" viewBox="0 0 7 9">
 <polygon points="6,4 6,3 5,3 5,2 4,2 4,1 3,1 3,0 2,0 1,0 0,0 0,1 1,1 1,2 2,2 2,3 3,3 3,4 4,4 4,5 3,5 3,6 2,6 2,7 1,7 1,8 0,8 0,9 1,9 2,9 3,9 3,8 4,8 4,7 5,7 5,6 6,6 6,5 7,5 7,4 "/>
</g>
<g id="icon-hamburger" viewBox="0 0 18 13">
  <path d="M1367,103h18v3h-18v-3Zm0,5h18v3h-18v-3Zm0,5h18v3h-18v-3Z" transform="translate(-1367 -103)"/>
</g>
<g id="icon-close" viewBox="0 0 13 13">
  <path d="M1389,113h1v1h-1v-1Zm1,1h1v1h-1v-1Zm0-1h1v1h-1v-1Zm0-1h1v1h-1v-1Zm1,1h1v1h-1v-1Zm0-1h1v1h-1v-1Zm0-1h1v1h-1v-1Zm1,1h1v1h-1v-1Zm0-1h1v1h-1v-1Zm1,2h1v1h-1v-1Zm0,0h1v1h-1v-1Zm-1,0h1v1h-1v-1Zm1-1h1v1h-1v-1Zm-1,2h1v1h-1v-1Zm-1,0h1v1h-1v-1Zm0,1h1v1h-1v-1Zm2-4h1v1h-1v-1Zm-1-1h1v1h-1v-1Zm1-1h1v1h-1v-1Zm1-1h1v1h-1v-1Zm0,4h1v1h-1v-1Zm0-1h1v1h-1v-1Zm-1-1h1v1h-1v-1Zm1,0h1v1h-1v-1Zm1,1h1v1h-1v-1Zm-1-2h1v1h-1v-1Zm1,1h1v1h-1v-1Zm0-1h1v1h-1v-1Zm0-1h1v1h-1v-1Zm0-1h1v1h-1v-1Zm1,1h1v1h-1v-1Zm0-1h1v1h-1v-1Zm1,0h1v1h-1v-1Zm0,1h1v1h-1v-1Zm-1,1h1v1h-1v-1Zm1,0h1v1h-1v-1Zm-1,1h1v1h-1v-1Zm0-4h1v1h-1v-1Zm1,0h1v1h-1v-1Zm1,2h1v1h-1v-1Zm0-1h1v1h-1v-1Zm0-1h1v1h-1v-1Zm-1-1h1v1h-1v-1Zm1,0h1v1h-1v-1Zm1,2h1v1h-1v-1Zm0-1h1v1h-1v-1Zm0-1h1v1h-1v-1Zm-1-1h1v1h-1v-1Zm1,0h1v1h-1v-1Zm1,2h1v1h-1v-1Zm0-1h1v1h-1v-1Zm0-1h1v1h-1v-1Zm-1,11h1v1h-1v-1Zm2-2h1v1h-1v-1Zm0-8h1v1h-1v-1Zm-2-2h1v1h-1v-1Zm-8,0h1v1h-1v-1Zm-1,1h1v1h-1v-1Zm1,0h1v1h-1v-1Zm1,0h1v1h-1v-1Zm-1,1h1v1h-1v-1Zm1,0h1v1h-1v-1Zm1,0h1v1h-1v-1Zm-1,1h1v1h-1v-1Zm1,0h1v1h-1v-1Zm-2,1h1v1h-1v-1Zm0,0h1v1h-1v-1Zm0-1h1v1h-1v-1Zm1,1h1v1h-1v-1Zm-2-1h1v1h-1v-1Zm0-1h1v1h-1v-1Zm-1,0h1v1h-1v-1Zm4,2h1v1h-1v-1Zm1-1h1v1h-1v-1Zm1,1h1v1h-1v-1Zm1,1h1v1h-1v-1Zm-4,0h1v1h-1v-1Zm1,0h1v1h-1v-1Zm1-1h1v1h-1v-1Zm0,1h1v1h-1v-1Zm-1,1h1v1h-1v-1Zm2-1h1v1h-1v-1Zm-1,1h1v1h-1v-1Zm1,0h1v1h-1v-1Zm1,0h1v1h-1v-1Zm1,0h1v1h-1v-1Zm-1,1h1v1h-1v-1Zm1,0h1v1h-1v-1Zm0,1h1v1h-1v-1Zm-1,0h1v1h-1v-1Zm-1-1h1v1h-1v-1Zm0,1h1v1h-1v-1Zm-1-1h1v1h-1v-1Zm4,0h1v1h-1v-1Zm0,1h1v1h-1v-1Zm-2,1h1v1h-1v-1Zm1,0h1v1h-1v-1Zm1,0h1v1h-1v-1Zm1-1h1v1h-1v-1Zm0,1h1v1h-1v-1Zm-2,1h1v1h-1v-1Zm1,0h1v1h-1v-1Zm1,0h1v1h-1v-1Zm1-1h1v1h-1v-1Zm0,1h1v1h-1v-1Zm-2,1h1v1h-1v-1Zm1,0h1v1h-1v-1Zm1,0h1v1h-1v-1Z" transform="translate(-1389 -103)"/>
</g>

<g id="icon-check-1" viewBox="0 0 9 7">
 <path d="M380,311h1v1h-1v-1Zm-1-1h1v1h-1v-1Zm-1-1h1v1h-1v-1Zm-1-1h1v1h-1v-1Zm4,2h1v1h-1v-1Zm1-1h1v1h-1v-1Zm1-1h1v1h-1v-1Zm1-1h1v1h-1v-1Zm1-1h1v1h-1v-1Zm-5,4h1v1h-1v-1Zm-1-1h1v1h-1v-1Zm-1-1h1v1h-1v-1Zm-1-1h1v1h-1v-1Zm4,2h1v1h-1v-1Zm1-1h1v1h-1v-1Zm1-1h1v1h-1v-1Zm1-1h1v1h-1v-1Zm1-1h1v1h-1v-1Z" transform="translate(-377 -305)"/>
</g>
<g id="icon-check-2" viewBox="0 0 9 8">
   <path d="M380,311h1v1h-1v-1Zm-1-1h1v1h-1v-1Zm-1-1h1v1h-1v-1Zm-1-1h1v1h-1v-1Zm4,2h1v1h-1v-1Zm1-1h1v1h-1v-1Zm1-1h1v1h-1v-1Zm1-1h1v1h-1v-1Zm1-1h1v1h-1v-1Zm-5,4h1v1h-1v-1Zm-1-1h1v1h-1v-1Zm-1-1h1v1h-1v-1Zm-1-1h1v1h-1v-1Zm4,2h1v1h-1v-1Zm1-1h1v1h-1v-1Zm1-1h1v1h-1v-1Zm1-1h1v1h-1v-1Zm1-1h1v1h-1v-1Zm-5,7h1v1h-1v-1Zm-1-1h1v1h-1v-1Zm-1-1h1v1h-1v-1Zm-1-1h1v1h-1v-1Zm4,2h1v1h-1v-1Zm1-1h1v1h-1v-1Zm1-1h1v1h-1v-1Zm1-1h1v1h-1v-1Zm1-1h1v1h-1v-1Zm-5,4h1v1h-1v-1Zm-1-1h1v1h-1v-1Zm-1-1h1v1h-1v-1Zm-1-1h1v1h-1v-1Zm4,2h1v1h-1v-1Zm1-1h1v1h-1v-1Zm1-1h1v1h-1v-1Zm1-1h1v1h-1v-1Zm1-1h1v1h-1v-1Z" transform="translate(-377 -305)"/>
</g>

<g id="icon-grid-0" viewBox="0 0 19 19">
<rect width="18" height="2"></rect>
<rect y="16" width="18" height="2"></rect>
<rect y="8" width="18" height="2"></rect>
</g>


<g id="icon-grid-1" viewBox="0 0 19 19">
	<path d="M7,2v5H2V2H7 M9,0H0v9h9V0L9,0z"></path>
	<path d="M17,2v5h-5V2H17 M19,0h-9v9h9V0L19,0z"></path>
	<path d="M7,12v5H2v-5H7 M9,10H0v9h9V10L9,10z"></path>
	<path d="M17,12v5h-5v-5H17 M19,10h-9v9h9V10L19,10z"></path>
</g>

<g id="icon-grid-2" viewBox="0 0 19 19">
<rect width="5" height="5"></rect>
<rect x="7" width="5" height="5"></rect>
<rect x="14" width="5" height="5"></rect>
<rect y="7" width="5" height="5"></rect>
<rect x="7" y="7" width="5" height="5"></rect>
<rect x="14" y="7" width="5" height="5"></rect>
<rect y="14" width="5" height="5"></rect>
<rect x="7" y="14" width="5" height="5"></rect>
<rect x="14" y="14" width="5" height="5"></rect>
</g>
<g id="icon-grid-3" viewBox="0 0 19 19">
 <rect width="4" height="4"></rect>
 <rect x="5" width="4" height="4"></rect>
 <rect x="10" width="4" height="4"></rect>
 <rect x="15" width="4" height="4"></rect>
 <rect y="5" width="4" height="4"></rect>
 <rect x="5" y="5" width="4" height="4"></rect>
 <rect x="10" y="5" width="4" height="4"></rect>
 <rect x="15" y="5" width="4" height="4"></rect>
 <rect y="15" width="4" height="4"></rect>
 <rect x="5" y="15" width="4" height="4"></rect>
 <rect x="10" y="15" width="4" height="4"></rect>
 <rect x="15" y="15" width="4" height="4"></rect>
 <rect y="10" width="4" height="4"></rect>
 <rect x="5" y="10" width="4" height="4"></rect>
 <rect x="10" y="10" width="4" height="4"></rect>
 <rect x="15" y="10" width="4" height="4"></rect>
</g>

<g viewBox="0 0 15.5 14.4" id="icon-wish-list">
<path d="M13.5 2.1l-.2-.2C12 .8 10 .8 8.8 2.1l-.6.7c-.2.2-.6.2-.8 0l-.7-.7c-.1 0-.1-.1-.2-.2C5.2.8 3.3.8 2.1 2.1.8 3.5.8 5.7 2.1 7l5.7 6 5.7-6c1.3-1.3 1.3-3.5 0-4.9z" fill="none"/><path d="M14.3 1.4c-.8-.9-2-1.4-3.1-1.4C10 0 8.8.5 8 1.4l-.2.2-.3-.2c-1.6-1.7-4.3-1.8-6-.2-.1 0-.2.1-.2.2-1.7 1.8-1.7 4.7 0 6.5l6.1 6.4c.2.2.6.2.8 0l6.1-6.4C16 6 16 3.2 14.3 1.4zm-.8 5.7l-5.7 6-5.7-6C.8 5.7.8 3.5 2.1 2.2 3.3.9 5.3.8 6.5 2c.1 0 .1.1.2.1l.7.7c.2.2.6.2.8 0l.7-.7C10 .8 12 .8 13.3 1.9l.2.2c1.3 1.4 1.3 3.6 0 5z"/>
</g>
</svg>





