<!-- Generated by IcoMoon.io -->
<svg version="1.1" xmlns="http://www.w3.org/2000/svg" width="27" height="32" viewBox="0 0 27 32">
<title>arrow-top</title>
<path d="M11.169 29.686c-0.021-0.127-0.030-0.256-0.028-0.385v-21.948l-0.221 0.479c-0.219 0.468-0.518 0.893-0.883 1.258l-6.1 6.155c-0.767 0.811-2.001 0.947-2.923 0.323-0.983-0.726-1.197-2.119-0.477-3.111 0.058-0.080 0.122-0.156 0.19-0.228l11.031-11.13c0.861-0.87 2.258-0.871 3.12-0.002l0.002 0.002 11.031 11.13c0.86 0.87 0.858 2.28-0.004 3.148-0.068 0.068-0.14 0.132-0.216 0.191-0.923 0.624-2.156 0.488-2.923-0.323l-6.111-6.144c-0.324-0.327-0.596-0.702-0.805-1.113l-0.298-0.668v21.859c0.042 1.137-0.745 2.135-1.853 2.348-1.203 0.197-2.336-0.627-2.531-1.841z"></path>
</svg>
