<svg xmlns="http://www.w3.org/2000/svg" width="13" height="13" viewBox="0 0 13 13">
  <defs>
    <style>
      .cls-1 {
        fill: #fff;
        fill-rule: evenodd;
      }
    </style>
  </defs>
  <path id="Rectangle_3_copy_8" data-name="Rectangle 3 copy 8" class="cls-1" d="M1389,113h1v1h-1v-1Zm1,1h1v1h-1v-1Zm0-1h1v1h-1v-1Zm0-1h1v1h-1v-1Zm1,1h1v1h-1v-1Zm0-1h1v1h-1v-1Zm0-1h1v1h-1v-1Zm1,1h1v1h-1v-1Zm0-1h1v1h-1v-1Zm1,2h1v1h-1v-1Zm0,0h1v1h-1v-1Zm-1,0h1v1h-1v-1Zm1-1h1v1h-1v-1Zm-1,2h1v1h-1v-1Zm-1,0h1v1h-1v-1Zm0,1h1v1h-1v-1Zm2-4h1v1h-1v-1Zm-1-1h1v1h-1v-1Zm1-1h1v1h-1v-1Zm1-1h1v1h-1v-1Zm0,4h1v1h-1v-1Zm0-1h1v1h-1v-1Zm-1-1h1v1h-1v-1Zm1,0h1v1h-1v-1Zm1,1h1v1h-1v-1Zm-1-2h1v1h-1v-1Zm1,1h1v1h-1v-1Zm0-1h1v1h-1v-1Zm0-1h1v1h-1v-1Zm0-1h1v1h-1v-1Zm1,1h1v1h-1v-1Zm0-1h1v1h-1v-1Zm1,0h1v1h-1v-1Zm0,1h1v1h-1v-1Zm-1,1h1v1h-1v-1Zm1,0h1v1h-1v-1Zm-1,1h1v1h-1v-1Zm0-4h1v1h-1v-1Zm1,0h1v1h-1v-1Zm1,2h1v1h-1v-1Zm0-1h1v1h-1v-1Zm0-1h1v1h-1v-1Zm-1-1h1v1h-1v-1Zm1,0h1v1h-1v-1Zm1,2h1v1h-1v-1Zm0-1h1v1h-1v-1Zm0-1h1v1h-1v-1Zm-1-1h1v1h-1v-1Zm1,0h1v1h-1v-1Zm1,2h1v1h-1v-1Zm0-1h1v1h-1v-1Zm0-1h1v1h-1v-1Zm-1,11h1v1h-1v-1Zm2-2h1v1h-1v-1Zm0-8h1v1h-1v-1Zm-2-2h1v1h-1v-1Zm-8,0h1v1h-1v-1Zm-1,1h1v1h-1v-1Zm1,0h1v1h-1v-1Zm1,0h1v1h-1v-1Zm-1,1h1v1h-1v-1Zm1,0h1v1h-1v-1Zm1,0h1v1h-1v-1Zm-1,1h1v1h-1v-1Zm1,0h1v1h-1v-1Zm-2,1h1v1h-1v-1Zm0,0h1v1h-1v-1Zm0-1h1v1h-1v-1Zm1,1h1v1h-1v-1Zm-2-1h1v1h-1v-1Zm0-1h1v1h-1v-1Zm-1,0h1v1h-1v-1Zm4,2h1v1h-1v-1Zm1-1h1v1h-1v-1Zm1,1h1v1h-1v-1Zm1,1h1v1h-1v-1Zm-4,0h1v1h-1v-1Zm1,0h1v1h-1v-1Zm1-1h1v1h-1v-1Zm0,1h1v1h-1v-1Zm-1,1h1v1h-1v-1Zm2-1h1v1h-1v-1Zm-1,1h1v1h-1v-1Zm1,0h1v1h-1v-1Zm1,0h1v1h-1v-1Zm1,0h1v1h-1v-1Zm-1,1h1v1h-1v-1Zm1,0h1v1h-1v-1Zm0,1h1v1h-1v-1Zm-1,0h1v1h-1v-1Zm-1-1h1v1h-1v-1Zm0,1h1v1h-1v-1Zm-1-1h1v1h-1v-1Zm4,0h1v1h-1v-1Zm0,1h1v1h-1v-1Zm-2,1h1v1h-1v-1Zm1,0h1v1h-1v-1Zm1,0h1v1h-1v-1Zm1-1h1v1h-1v-1Zm0,1h1v1h-1v-1Zm-2,1h1v1h-1v-1Zm1,0h1v1h-1v-1Zm1,0h1v1h-1v-1Zm1-1h1v1h-1v-1Zm0,1h1v1h-1v-1Zm-2,1h1v1h-1v-1Zm1,0h1v1h-1v-1Zm1,0h1v1h-1v-1Z" transform="translate(-1389 -103)"/>
</svg>
