<!-- Generated by IcoMoon.io -->
<svg version="1.1" xmlns="http://www.w3.org/2000/svg" width="32" height="32" viewBox="0 0 32 32">
<title>drag-drop-editor</title>
<path d="M29.091 0h-26.182c-1.604 0-2.909 1.305-2.909 2.909v26.182c0 1.604 1.305 2.909 2.909 2.909h26.182c1.604 0 2.909-1.305 2.909-2.909v-26.182c-0-1.604-1.305-2.909-2.909-2.909zM9.455 2.909c0.402 0 0.727 0.326 0.727 0.727s-0.326 0.727-0.727 0.727c-0.402 0-0.727-0.326-0.727-0.727s0.326-0.727 0.727-0.727zM6.545 2.909c0.402 0 0.727 0.326 0.727 0.727s-0.326 0.727-0.727 0.727c-0.402 0-0.727-0.326-0.727-0.727s0.326-0.727 0.727-0.727zM3.636 2.909c0.402 0 0.727 0.325 0.727 0.727s-0.326 0.727-0.727 0.727-0.727-0.326-0.727-0.727c0-0.402 0.326-0.727 0.727-0.727zM29.091 29.091h-26.182v-21.818h26.182v21.818z"></path>
<path d="M5.818 24.731c0.804 0 1.459-0.655 1.459-1.459 0-0.525-0.294-0.965-0.712-1.222 0.134-2.316 1.338-6.553 8.215-6.753 0.258 0.415 0.696 0.707 1.219 0.707 0.804 0 1.459-0.655 1.459-1.459s-0.655-1.459-1.459-1.459c-0.54 0-0.994 0.309-1.246 0.747-6.807 0.2-9.438 4.23-9.646 8.192-0.439 0.252-0.748 0.706-0.748 1.247 0 0.804 0.655 1.459 1.459 1.459z"></path>
<path d="M19.396 25.413c0.078 0.028 0.159 0.041 0.24 0.041 0.216 0 0.428-0.097 0.568-0.273l2.69-3.364h4.014c0.308 0 0.584-0.195 0.686-0.487s0.010-0.616-0.232-0.809l-7.273-5.818c-0.22-0.175-0.516-0.21-0.77-0.087-0.251 0.121-0.412 0.376-0.412 0.656v9.455c0 0.309 0.195 0.584 0.487 0.686z"></path>
</svg>
