<!-- Generated by IcoMoon.io -->
<svg version="1.1" xmlns="http://www.w3.org/2000/svg" width="32" height="32" viewBox="0 0 32 32">
<title>facebook</title>
<path d="M16 0c-8.837 0-16 7.194-16 16.067 0 7.958 5.768 14.549 13.332 15.826v-12.474h-3.86v-4.489h3.86v-3.31c0-3.84 2.336-5.933 5.748-5.933 1.634 0 3.039 0.122 3.446 0.176v4.014l-2.367 0.001c-1.855 0-2.213 0.885-2.213 2.184v2.865h4.427l-0.577 4.489h-3.849v12.583c7.916-0.968 14.054-7.726 14.054-15.938 0-8.869-7.164-16.062-16-16.062z"></path>
</svg>
