<!-- Generated by IcoMoon.io -->
<svg version="1.1" xmlns="http://www.w3.org/2000/svg" width="33" height="32" viewBox="0 0 33 32">
<title>instagram</title>
<path d="M32.597 9.403c-0.078-1.703-0.348-2.866-0.744-3.884-0.402-1.068-1.032-2.035-1.846-2.834-0.799-0.814-1.766-1.444-2.834-1.846-1.018-0.395-2.181-0.666-3.884-0.743-1.706-0.078-2.251-0.097-6.597-0.097s-4.89 0.019-6.597 0.096c-1.703 0.078-2.866 0.348-3.884 0.744-1.068 0.402-2.035 1.032-2.834 1.845-0.814 0.799-1.444 1.766-1.846 2.834-0.395 1.018-0.666 2.181-0.743 3.884-0.078 1.707-0.097 2.251-0.097 6.597s0.019 4.891 0.097 6.597c0.078 1.703 0.348 2.866 0.744 3.884 0.402 1.067 1.031 2.035 1.845 2.834 0.799 0.814 1.766 1.444 2.834 1.846 1.018 0.396 2.181 0.666 3.884 0.744 1.707 0.078 2.251 0.096 6.597 0.096s4.89-0.018 6.597-0.096c1.703-0.078 2.866-0.348 3.884-0.744 2.149-0.831 3.848-2.53 4.679-4.679 0.396-1.018 0.666-2.181 0.744-3.884 0.078-1.707 0.096-2.251 0.096-6.597s-0.019-4.89-0.096-6.597zM29.717 22.466c-0.071 1.56-0.332 2.407-0.551 2.971-0.538 1.395-1.641 2.498-3.037 3.037-0.564 0.219-1.411 0.48-2.971 0.551-1.687 0.077-2.193 0.093-6.465 0.093s-4.779-0.016-6.466-0.093c-1.56-0.071-2.407-0.332-2.971-0.551-0.695-0.257-1.324-0.666-1.84-1.197-0.532-0.516-0.94-1.145-1.197-1.84-0.219-0.564-0.48-1.411-0.551-2.971-0.077-1.687-0.093-2.193-0.093-6.465s0.016-4.778 0.093-6.466c0.071-1.56 0.332-2.407 0.551-2.971 0.257-0.695 0.666-1.324 1.197-1.84 0.516-0.532 1.145-0.94 1.84-1.197 0.564-0.219 1.411-0.48 2.971-0.551 1.687-0.077 2.193-0.093 6.465-0.093s4.778 0.016 6.465 0.094c1.56 0.071 2.407 0.332 2.971 0.551 0.695 0.257 1.324 0.666 1.84 1.197 0.531 0.516 0.94 1.145 1.197 1.84 0.219 0.564 0.48 1.411 0.551 2.971 0.077 1.687 0.093 2.193 0.093 6.465s-0.016 4.778-0.093 6.466z"></path>
<path d="M16.693 7.784c-4.538 0-8.216 3.679-8.216 8.216s3.678 8.216 8.216 8.216c4.538 0 8.216-3.678 8.216-8.216s-3.678-8.216-8.216-8.216zM16.693 21.333c-2.945-0-5.333-2.388-5.333-5.334s2.388-5.333 5.333-5.333c2.946 0 5.333 2.388 5.333 5.333s-2.388 5.334-5.334 5.334z"></path>
<path d="M27.154 7.459c0 1.060-0.86 1.92-1.92 1.92s-1.92-0.86-1.92-1.92c0-1.061 0.86-1.92 1.92-1.92s1.92 0.86 1.92 1.92z"></path>
</svg>
