<!-- Generated by IcoMoon.io -->
<svg version="1.1" xmlns="http://www.w3.org/2000/svg" width="28" height="32" viewBox="0 0 28 32">
<title>push-notifications</title>
<path d="M8.225 29.113c0.748 1.698 2.442 2.887 4.407 2.887s3.659-1.189 4.407-2.887h-8.814z"></path>
<path d="M12.631 3.057c1.297 0 2.542 0.23 3.698 0.65v-0.143c0-1.966-1.593-3.565-3.551-3.565h-0.294c-1.958 0-3.551 1.599-3.551 3.565v0.141c1.155-0.419 2.4-0.649 3.698-0.649z"></path>
<path d="M21.811 17.395c-4.016-0.19-7.214-3.507-7.214-7.57 0-1.584 0.486-3.054 1.316-4.27-1.018-0.4-2.125-0.619-3.282-0.619-4.98 0-9.031 4.067-9.031 9.066 0 2.771-0.273 6.652-1.571 9.407-0.707 1.5-1.414 1.996-1.507 2.057-0.395 0.183-0.59 0.607-0.499 1.037 0.092 0.434 0.496 0.733 0.938 0.733h23.343c0.442 0 0.846-0.299 0.938-0.733 0.091-0.429-0.104-0.853-0.5-1.037-0.094-0.061-0.8-0.557-1.507-2.057-0.822-1.743-1.233-3.936-1.424-6.014z"></path>
<path d="M27.509 9.825c0 2.945-2.388 5.333-5.333 5.333s-5.333-2.388-5.333-5.333c0-2.946 2.388-5.333 5.333-5.333s5.333 2.388 5.333 5.333z"></path>
</svg>
