<!-- Generated by IcoMoon.io -->
<svg version="1.1" xmlns="http://www.w3.org/2000/svg" width="22" height="32" viewBox="0 0 22 32">
<title>qr-code-preview</title>
<path d="M2.010 0h18.089c1.109 0 2.010 0.898 2.010 2v28c0 1.104-0.9 2-2.010 2h-18.089c-1.107 0-2.010-0.896-2.010-2v-28c0-1.102 0.902-2 2.010-2zM20.079 26h0.020v-22h-18.089v0.020h-0.020v22h18.089v-0.020zM11.306 30.537c0.892 0 1.615-0.72 1.615-1.607s-0.723-1.607-1.615-1.607-1.615 0.72-1.615 1.607c0 0.888 0.723 1.607 1.615 1.607z"></path>
<path d="M9.025 8h-4.020c-0.555 0-1.005 0.448-1.005 1v4c0 0.552 0.45 1 1.005 1h4.020c0.555 0 1.005-0.448 1.005-1v-4c0-0.552-0.45-1-1.005-1zM8.021 12h-2.010v-2h2.010v2z"></path>
<path d="M17.064 8h-4.020c-0.555 0-1.005 0.448-1.005 1v4c0 0.552 0.45 1 1.005 1h4.020c0.555 0 1.005-0.448 1.005-1v-4c0-0.552-0.45-1-1.005-1zM16.059 12h-2.010v-2h2.010v2z"></path>
<path d="M9.025 16h-4.020c-0.555 0-1.005 0.448-1.005 1v4c0 0.552 0.45 1 1.005 1h4.020c0.555 0 1.005-0.448 1.005-1v-4c0-0.552-0.45-1-1.005-1zM8.021 20h-2.010v-2h2.010v2z"></path>
<path d="M14.049 16h-2.010v2h2.010v-2z"></path>
<path d="M16.060 18v2h-2.010v2h3.015c0.555 0 1.005-0.448 1.005-1v-3h-2.010z"></path>
</svg>
