<!-- Generated by IcoMoon.io -->
<svg version="1.1" xmlns="http://www.w3.org/2000/svg" width="31" height="32" viewBox="0 0 31 32">
<title>submit-in-1-click</title>
<path d="M30.468 26.641l-6.124-6.124 4.369-2.523c0.341-0.197 0.54-0.572 0.512-0.965s-0.279-0.736-0.645-0.882l-19.482-7.771c-0.382-0.153-0.818-0.063-1.109 0.228s-0.381 0.727-0.228 1.109l7.77 19.484c0.146 0.366 0.489 0.617 0.882 0.645s0.768-0.17 0.965-0.512l2.523-4.369 6.123 6.124c0.193 0.193 0.455 0.301 0.728 0.301s0.535-0.108 0.728-0.301l2.988-2.989c0.402-0.402 0.402-1.053-0-1.455z"></path>
<path d="M4.517 3.676c-0.402-0.402-1.053-0.402-1.455 0s-0.402 1.053 0 1.455l2.286 2.286c0.201 0.201 0.464 0.301 0.728 0.301s0.527-0.101 0.728-0.301c0.402-0.402 0.402-1.053 0-1.455l-2.286-2.286z"></path>
<path d="M5.291 10.79c0-0.568-0.461-1.029-1.029-1.029h-3.233c-0.568 0-1.029 0.461-1.029 1.029s0.461 1.029 1.029 1.029h3.233c0.568-0 1.029-0.461 1.029-1.029z"></path>
<path d="M4.874 13.966l-2.287 2.287c-0.402 0.402-0.402 1.053 0 1.455 0.201 0.201 0.464 0.301 0.728 0.301s0.527-0.101 0.728-0.301l2.287-2.286c0.402-0.402 0.402-1.053 0-1.455s-1.053-0.402-1.455 0z"></path>
<path d="M10.175 5.906c0.568 0 1.029-0.461 1.029-1.029v-3.234c0-0.568-0.461-1.029-1.029-1.029s-1.029 0.461-1.029 1.029v3.234c0 0.568 0.461 1.029 1.029 1.029z"></path>
<path d="M14.078 7.245c0.263 0 0.527-0.101 0.728-0.301l2.286-2.286c0.402-0.402 0.402-1.053 0-1.455s-1.053-0.402-1.455 0l-2.286 2.286c-0.402 0.402-0.402 1.053 0 1.455 0.201 0.201 0.464 0.301 0.728 0.301z"></path>
</svg>
