<!-- Generated by IcoMoon.io -->
<svg version="1.1" xmlns="http://www.w3.org/2000/svg" width="32" height="32" viewBox="0 0 32 32">
<title>telegram</title>
<path d="M16 0c-8.835 0-16 7.165-16 16s7.165 16 16 16 16-7.165 16-16-7.165-16-16-16zM24.070 10.017c-0.278 2.574-1.322 8.696-1.809 11.548-0.209 1.183-0.696 1.6-1.113 1.67-0.904 0.070-1.6-0.626-2.504-1.183-1.391-0.904-2.226-1.53-3.548-2.365-1.6-1.043-0.557-1.6 0.348-2.574 0.209-0.278 4.313-3.965 4.383-4.313 0-0.070 0-0.209-0.070-0.278s-0.209-0.070-0.348 0c-0.139 0-2.365 1.53-6.748 4.452-0.626 0.417-1.183 0.626-1.739 0.626s-1.67-0.348-2.504-0.557c-0.974-0.348-1.809-0.487-1.739-1.043 0.070-0.278 0.417-0.557 1.183-0.904 4.661-2.017 7.791-3.339 9.322-4.035 4.452-1.878 5.357-2.157 5.983-2.157 0.139 0 0.417 0 0.626 0.209 0.139 0.139 0.209 0.278 0.209 0.417s0.070 0.278 0.070 0.487z"></path>
</svg>
