<!-- Generated by IcoMoon.io -->
<svg version="1.1" xmlns="http://www.w3.org/2000/svg" width="40" height="32" viewBox="0 0 40 32">
<title>twitter</title>
<path d="M12.512 32c15.014 0 23.224-12.31 23.224-22.985 0-0.35-0.007-0.698-0.023-1.044 1.593-1.14 2.979-2.563 4.072-4.183-1.462 0.643-3.036 1.076-4.687 1.272 1.685-1 2.979-2.582 3.589-4.468-1.577 0.925-3.324 1.598-5.183 1.961-1.489-1.57-3.61-2.552-5.958-2.552-4.507 0-8.163 3.618-8.163 8.077 0 0.634 0.072 1.251 0.212 1.842-6.784-0.338-12.799-3.552-16.825-8.44-0.701 1.194-1.105 2.581-1.105 4.061 0 2.802 1.441 5.277 3.632 6.724-1.339-0.041-2.597-0.405-3.697-1.010-0.001 0.034-0.001 0.067-0.001 0.103 0 3.912 2.813 7.179 6.549 7.919-0.686 0.185-1.408 0.284-2.152 0.284-0.525 0-1.037-0.051-1.534-0.146 1.039 3.21 4.053 5.545 7.625 5.611-2.794 2.167-6.313 3.458-10.138 3.458-0.658 0-1.308-0.037-1.947-0.112 3.612 2.291 7.902 3.629 12.512 3.629z"></path>
</svg>
