<svg aria-hidden="true" style="position: absolute; width: 0; height: 0; overflow: hidden;" version="1.1" xmlns="http://www.w3.org/2000/svg" xmlns:xlink="http://www.w3.org/1999/xlink">
<g id="icon-bronzer" viewBox="0 0 33 32">
<path d="M33.316 8.319v-0.116l-0.077-0.077c-1.316-2.012-3.521-3.212-5.92-3.212-1.393 0-2.747 0.387-3.908 1.161l-0.077 0.116-0.039 0.077c-0.039 0.077-0.116 0.271-0.077 0.464l1.896 5.882-0.31 1.432 2.36 0.503-0.193 0.967-2.36-0.464-2.631 15.865 0.155 0.193c0.077 0.077 0.658 0.658 1.548 0.658 0.271 0 0.58-0.077 0.851-0.193l0.232-0.116 3.947-16.135 0.387-1.896 4.063-4.643c0.116-0.116 0.193-0.271 0.155-0.464zM28.518 12.692l-2.515-0.503-1.741-5.378c0.387-0.232 0.774-0.387 1.2-0.542l0.116 2.554c0 0.271 0.232 0.464 0.503 0.464 0 0 0 0 0.039 0 0.271 0 0.464-0.232 0.464-0.503l-0.155-2.747c0.31-0.039 0.619-0.077 0.929-0.077 0.232 0 0.503 0 0.735 0.039l-0.619 2.244c-0.077 0.271 0.077 0.542 0.348 0.58 0.039 0 0.077 0 0.116 0 0.232 0 0.426-0.155 0.464-0.348l0.619-2.283c0.542 0.155 1.045 0.387 1.509 0.658l-2.593 3.908c-0.155 0.232-0.077 0.542 0.116 0.658 0.077 0.039 0.193 0.077 0.271 0.077 0.155 0 0.31-0.077 0.387-0.232l2.593-3.869c0.348 0.31 0.658 0.619 0.929 1.006l-3.715 4.295z"></path>
<path d="M15.632 11.492c0 0 0 0 0 0-0.426-0.426-0.658-1.006-0.658-1.586s0.232-1.083 0.619-1.509c3.637-0.697 6.036-2.167 6.036-3.986 0-2.515-4.643-4.411-10.834-4.411-6.152 0-10.796 1.896-10.796 4.411 0 1.78 2.36 3.25 5.92 3.947 0.813 0.89 0.813 2.244-0.039 3.096-0.039 0.039-0.077 0.077-0.077 0.116-3.405 1.857-5.765 5.456-5.765 9.596 0 5.959 4.837 10.796 10.796 10.796 5.959 0.039 10.834-4.837 10.834-10.796 0-4.218-2.476-7.894-6.036-9.674zM2.709 4.411c0-1.78 4.179-2.592 8.087-2.592s8.087 0.813 8.087 2.592c0 1.78-4.179 2.592-8.087 2.592s-8.087-0.813-8.087-2.592zM14.162 10.873c-1.045-0.348-2.167-0.542-3.328-0.542-1.238 0-2.399 0.193-3.521 0.58 0.271-0.774 0.232-1.625-0.116-2.36 1.122 0.155 2.322 0.232 3.56 0.232s2.399-0.077 3.482-0.232c-0.193 0.426-0.271 0.851-0.271 1.316 0.039 0.387 0.116 0.697 0.193 1.006zM10.834 31.033c-5.417 0-9.828-4.411-9.828-9.828s4.411-9.828 9.828-9.828c5.417 0 9.828 4.411 9.828 9.828 0.039 5.378-4.372 9.828-9.828 9.828z"></path>
<path d="M2.051 21.166c0 4.682 3.676 8.513 8.319 8.784v-17.528c0 0 0-0.039 0-0.039-4.643 0.271-8.319 4.102-8.319 8.784z"></path>
<path d="M11.337 12.382c0 0 0 0.039 0 0.039v17.528c4.643-0.271 8.319-4.102 8.319-8.784s-3.715-8.513-8.319-8.784z"></path>
</g>
<g id="icon-blush" viewBox="0 0 33 32">
<path d="M33.316 8.319v-0.116l-0.077-0.077c-0.503-0.735-1.083-1.354-1.78-1.857 0 0 0 0 0 0s0 0 0 0c-1.2-0.851-2.631-1.316-4.14-1.316-1.393 0-2.747 0.387-3.908 1.161l-0.116 0.077-0.039 0.116c-0.039 0.077-0.116 0.271-0.077 0.464l1.896 5.881-0.387 1.935-2.709 16.329 0.155 0.193c0.077 0.077 0.658 0.658 1.548 0.658 0.271 0 0.58-0.077 0.851-0.193l0.232-0.116 3.947-16.135 0.387-1.896 4.063-4.643c0.116-0.116 0.193-0.271 0.155-0.464zM27.782 15.129l-3.831 15.632c-0.077 0-0.155 0.039-0.232 0.039-0.271 0-0.503-0.116-0.658-0.232l2.554-15.323 1.393 0.271 0.193-0.967-1.432-0.31 0.232-1.122 2.089 0.426-0.31 1.586zM28.518 12.653l-2.515-0.503-1.741-5.378c0.387-0.232 0.774-0.387 1.2-0.542l0.116 2.554c0 0.271 0.232 0.464 0.503 0.464 0 0 0 0 0.039 0 0.271 0 0.464-0.232 0.464-0.503l-0.155-2.709c0.31-0.039 0.619-0.077 0.929-0.077 0.232 0 0.503 0 0.735 0.039l-0.619 2.244c-0.077 0.271 0.077 0.542 0.348 0.58 0.039 0 0.077 0 0.116 0 0.232 0 0.426-0.155 0.464-0.348l0.619-2.283c0.542 0.155 1.045 0.387 1.509 0.658l-2.593 3.908c-0.155 0.232-0.077 0.542 0.155 0.658 0.077 0.039 0.193 0.077 0.271 0.077 0.155 0 0.31-0.077 0.387-0.232l2.593-3.869c0.348 0.31 0.658 0.619 0.929 1.006l-3.753 4.256z"></path>
<path d="M18.921 4.411c0-1.78-4.179-2.592-8.087-2.592s-8.126 0.813-8.126 2.592c0 1.78 4.179 2.592 8.087 2.592s8.126-0.813 8.126-2.592zM10.796 6.036c-4.605 0-7.12-1.083-7.12-1.625s2.515-1.625 7.12-1.625c4.605 0 7.12 1.083 7.12 1.625s-2.476 1.625-7.12 1.625z"></path>
<path d="M15.632 11.492c0 0 0 0 0 0-0.426-0.426-0.658-1.006-0.658-1.586s0.232-1.122 0.619-1.509c3.637-0.697 6.036-2.167 6.036-3.986 0-2.515-4.643-4.411-10.834-4.411-6.152 0-10.796 1.896-10.796 4.411 0 1.78 2.36 3.25 5.92 3.947 0.851 0.89 0.813 2.244-0.039 3.134-0.039 0.039-0.077 0.077-0.077 0.116-3.405 1.819-5.765 5.417-5.765 9.557 0 5.959 4.837 10.796 10.796 10.796 5.959 0.039 10.834-4.837 10.834-10.796 0-4.218-2.476-7.894-6.036-9.674zM0.967 4.411c0-1.625 4.024-3.444 9.828-3.444s9.828 1.819 9.828 3.444c0 1.625-4.024 3.444-9.828 3.444-5.765 0-9.828-1.819-9.828-3.444zM14.162 10.873c-1.045-0.348-2.167-0.542-3.328-0.542-1.238 0-2.399 0.193-3.521 0.58 0.271-0.774 0.232-1.625-0.116-2.36 1.122 0.155 2.322 0.232 3.599 0.232 1.238 0 2.399-0.077 3.482-0.232-0.193 0.426-0.271 0.851-0.271 1.316 0 0.387 0.077 0.697 0.155 1.006zM10.834 31.033c-5.417 0-9.828-4.411-9.828-9.828s4.411-9.828 9.828-9.828c5.417 0 9.828 4.411 9.828 9.828 0.039 5.378-4.372 9.828-9.828 9.828z"></path>
<path d="M10.834 12.382c-4.837 0-8.784 3.947-8.784 8.784s3.947 8.822 8.784 8.822 8.822-3.947 8.822-8.822-3.947-8.784-8.822-8.784zM10.37 28.982c-4.102-0.271-7.352-3.637-7.352-7.816 0-4.14 3.25-7.545 7.352-7.816v15.632zM11.337 28.982v-15.632c4.102 0.271 7.352 3.637 7.352 7.816s-3.25 7.545-7.352 7.816z"></path>
</g>
<g id="icon-eyebrow" viewBox="0 0 42 32">
<path d="M5.051 9.64c6.583-2.327 23.771-5.683 34.757 0.478 0 0-4.621-8.464-19.831-9.964-6.64-0.649-13.077 0.819-17.439 2.335-1.889 0.657-2.935 2.675-2.392 4.605 0.592 2.108 2.838 3.284 4.905 2.546z"></path>
<path d="M38.875 18.801c-0.738 1.5-2.481 2.189-4.021 1.67-0.122-0.122-0.251-0.259-0.397-0.405 0.34-0.138 0.665-0.308 0.981-0.511 1.403-0.9 2.375-2.294 2.732-3.924l-2.87-0.632c-0.186 0.859-0.705 1.597-1.451 2.076-0.649 0.413-1.403 0.584-2.157 0.503-0.122-0.097-0.243-0.195-0.365-0.292 1.646-1.119 2.74-2.992 2.757-5.132l-2.943-0.024c-0.008 1.581-1.143 2.902-2.627 3.211-3.267-1.97-6.591-2.992-9.729-2.992-3.843 0-7.97 1.54-11.926 4.467-2.935 2.165-4.759 4.329-4.832 4.419l-0.795 0.94 0.795 0.94c0.073 0.089 1.897 2.246 4.832 4.419 3.956 2.919 8.075 4.467 11.926 4.467s7.97-1.54 11.926-4.467c2.205-1.63 3.778-3.251 4.459-3.997 0.243 0.032 0.486 0.041 0.73 0.041 2.303 0 4.524-1.281 5.61-3.478l-2.635-1.297zM15.347 28.587c-4.67-1.265-8.529-4.727-10.183-6.413 1.662-1.686 5.513-5.156 10.199-6.413-2.294 1.224-3.851 3.64-3.851 6.413s1.557 5.189 3.835 6.413zM18.785 23.868c-0.932 0-1.686-0.754-1.686-1.686s0.754-1.686 1.686-1.686 1.686 0.754 1.686 1.686-0.754 1.686-1.686 1.686zM22.206 28.595c2.294-1.224 3.851-3.64 3.851-6.413s-1.557-5.181-3.835-6.413c4.67 1.265 8.529 4.727 10.191 6.413-1.67 1.686-5.521 5.148-10.207 6.413z"></path>
</g>
<g id="icon-eyebrow1" viewBox="0 0 50 32">
<path d="M46.268 20.433c-0.587 0.411-1.35 0.763-2.231 1.116-0.646 0.117-0.822-0.059-0.47-0.528 1.527-1.292 2.466-2.407 2.76-3.405 0.176-0.528 0.235-0.881 0.176-1.057s-0.235-0.176-0.528 0l-1.703 1.174c-0.47 0.352-1.233 0.646-2.172 0.881-0.705 0.117-1.409 0.176-2.055 0.176-0.411-0.059-0.528-0.294-0.352-0.763l0.705-2.055c0.117-0.294 0.117-0.47 0-0.587-0.117-0.059-0.294 0.059-0.587 0.352-1.233 1.057-2.525 1.585-3.816 1.527-0.294 0-0.47-0.176-0.47-0.587v-0.763c0-0.646-0.176-0.763-0.587-0.294-0.822 0.939-2.466 1.468-4.991 1.468-5.813-0.176-10.921 0.763-15.383 2.818-2.407 1.292-4.932 3.288-7.692 5.989l-2.936 2.936c-0.47 0.528-0.411 0.646 0.235 0.411 3.816-2.055 7.809-3.758 12.095-5.050l1.174-0.294c-0.117 0.411-0.176 0.881-0.176 1.468 0 1.879 0.646 3.405 1.879 4.697 1.292 1.292 2.877 1.938 4.697 1.938s3.347-0.646 4.697-1.938c1.292-1.292 1.938-2.877 1.938-4.697 0-0.822-0.117-1.585-0.352-2.29l5.167 0.998c0.528 0.117 0.705 0.352 0.528 0.763-0.881 2.877-2.76 4.991-5.637 6.341-0.763 0.47-0.705 0.587 0.176 0.47 3.64-1.116 6.341-2.994 8.103-5.637l0.822-1.468c0.176-0.294 0.47-0.47 0.939-0.528 1.409-0.176 2.818-0.646 4.286-1.468 0.822-0.411 1.585-0.998 2.29-1.761 0.881-1.057 0.763-1.116-0.528-0.352zM27.714 29.123c-1.057 1.057-2.349 1.644-3.817 1.644s-2.701-0.528-3.817-1.644c-0.998-0.998-1.527-2.29-1.527-3.758 0-0.705 0.059-1.292 0.235-1.761 0.646-0.176 1.35-0.294 2.172-0.411v0.059c-0.528 0.763-0.763 1.644-0.587 2.642s0.646 1.761 1.468 2.231c0.822 0.587 1.761 0.822 2.642 0.646 0.998-0.235 1.761-0.705 2.29-1.527 0.294-0.411 0.47-0.763 0.528-1.116h-0.117c-0.47 0.117-0.881 0-1.35-0.294-0.411-0.235-0.646-0.646-0.763-1.116s0-0.939 0.294-1.35c0.235-0.352 0.528-0.587 0.939-0.646v-0.059l2.231 0.117c0.411 0.705 0.587 1.527 0.587 2.466 0.117 1.585-0.411 2.818-1.409 3.875z"></path>
<path d="M14.679 25.952c-0.059-0.235-0.176-0.352-0.47-0.294l-0.47 0.176c-0.176 0.117-0.235 0.294-0.294 0.587-0.176 1.057 0.352 2.407 1.585 4.169 0.528 0.528 0.822 0.822 0.881 0.763 0.059 0-0.117-0.352-0.528-0.939-0.646-1.174-0.881-2.642-0.705-4.462z"></path>
<path d="M26.070 15.501c2.055-0.059 2.055-0.235 0-0.528-6.576-0.352-11.861 1.292-15.853 4.991-0.646 0.705-0.587 0.822 0.235 0.294 5.461-3.229 10.686-4.815 15.618-4.756z"></path>
<path d="M48.206 1.585c-4.521-1.409-9.218-1.879-14.15-1.409-2.231 0.235-4.11 0.528-5.578 0.822-3.523 0.705-6.987 1.644-10.451 2.877-5.402 1.938-10.393 3.464-15.031 4.697-2.29 0.646-3.288 1.703-2.877 3.229 0.352 1.233 1.468 1.761 3.288 1.644 3.112-0.352 7.633-1.82 13.505-4.286 4.051-1.82 8.396-3.64 13.035-5.461 5.402-1.938 11.626-2.466 18.554-1.644 1.527 0.176 1.468 0.059-0.294-0.47z"></path>
</g>
<g id="icon-eyeliner" viewBox="0 0 22 32">
<path d="M10.337 5.792c0-0.037 0-0.037 0 0 0-0.037 0-0.037 0-0.037l-0.916-1.906c-0.037-0.073-0.11-0.147-0.183-0.183v-0.513c0-0.257-0.22-0.477-0.477-0.477s-0.477 0.22-0.477 0.477v0.477c-0.073 0.037-0.147 0.11-0.183 0.183l-0.916 1.906c0 0 0 0 0 0s0 0.037 0 0.037-0.037 0.073-0.037 0.147c0 0 0 0 0 0.037v23.239h3.189v-23.239c0 0 0 0 0-0.037s0-0.073 0-0.11zM8.357 5.462l0.403-0.843 0.403 0.843h-0.806z"></path>
<path d="M3.042 20.747c-0.037-0.11-0.11-0.22-0.22-0.257s-0.22-0.073-0.367 0l-2.126 0.77c-0.257 0.073-0.367 0.367-0.293 0.586l3.152 8.871c0.073 0.183 0.257 0.293 0.44 0.293 0.037 0 0.11 0 0.147-0.037l2.126-0.77c0.11-0.037 0.22-0.11 0.257-0.22s0.073-0.22 0-0.367l-3.116-8.871z"></path>
<path d="M7.184 31.523c0 0.257 0.22 0.477 0.477 0.477h2.236c0.257 0 0.477-0.22 0.477-0.477v-1.43h-3.189v1.43z"></path>
<path d="M21.7 13.086c-0.293-0.22-0.77-0.44-1.576-0.22-0.403 0.11-0.733 0.33-1.063 0.513-0.44 0.257-0.77 0.477-1.21 0.477-0.99-0.037-1.356-1.173-1.32-1.906 0.037-1.686 0.88-3.299 1.686-4.875 0.183-0.367 0.367-0.733 0.55-1.063 0.55-1.136 0.66-2.566 0.257-3.666-0.293-0.806-0.843-1.43-1.576-1.796-2.126-1.026-6.121-0.66-7.771 1.173-0.183 0.183-0.147 0.477 0.037 0.66s0.477 0.147 0.66-0.037c1.356-1.503 4.912-1.833 6.708-0.953 0.513 0.257 0.88 0.66 1.1 1.246 0.367 0.99 0.147 2.199-0.22 2.932-0.183 0.33-0.367 0.696-0.55 1.063-0.843 1.65-1.759 3.372-1.796 5.278-0.037 1.393 0.733 2.786 2.199 2.859 0.696 0.037 1.246-0.293 1.723-0.586 0.293-0.183 0.55-0.33 0.843-0.403 0.33-0.11 0.623-0.073 0.77 0.073 0.257 0.183 0.367 0.696 0.33 1.32 0 0.257 0.183 0.477 0.44 0.477 0 0 0 0 0.037 0 0.257 0 0.44-0.183 0.477-0.44 0-0.99-0.22-1.723-0.733-2.126z"></path>
</g>
<g id="icon-eyeshadow" viewBox="0 0 41 32">
<path d="M21.379 22.128c-0.204-0.136-0.409-0.272-0.613-0.272-0.068 0-0.204-0.068-0.272-0.068 0 0-0.068 0-0.068 0-0.068 0-0.204 0-0.272 0.068-0.204 0.068-0.409 0.136-0.613 0.272l-0.204 0.136c-0.613 0.477-0.953 1.294-0.953 2.247 0 1.498 0.885 2.723 2.043 2.723s2.043-1.226 2.043-2.723c0-0.953-0.34-1.77-0.885-2.247l-0.204-0.136z"></path>
<path d="M20.426 4.766c-1.157 0-2.043 1.226-2.043 2.723 0 0.953 0.34 1.77 0.885 2.247l0.204 0.136c0.204 0.136 0.409 0.272 0.613 0.272 0.068 0 0.204 0.068 0.272 0.068 0 0 0.068 0 0.068 0 0.068 0 0.204 0 0.272-0.068 0.204-0.068 0.409-0.136 0.613-0.272l0.204-0.136c0.545-0.477 0.885-1.294 0.885-2.247 0.068-1.498-0.817-2.723-1.974-2.723z"></path>
<path d="M13.549 4.766h-8.715c0 0-0.068 0.068-0.068 0.068v8.715c0 0 0.068 0.068 0.068 0.068h8.715c0.068 0 0.068-0.068 0.068-0.068v-8.715c0 0-0.068-0.068-0.068-0.068z"></path>
<path d="M13.549 18.383h-8.715c0 0-0.068 0.068-0.068 0.068v8.715c0 0 0.068 0.068 0.068 0.068h8.715c0.068 0 0.068-0.068 0.068-0.068v-8.715c0 0-0.068-0.068-0.068-0.068z"></path>
<path d="M21.106 20.494v-8.987c-0.204 0.068-0.477 0.068-0.681 0.068s-0.477 0-0.681-0.068v8.987c0.204-0.068 0.477-0.068 0.681-0.068s0.477 0 0.681 0.068z"></path>
<path d="M38.945 0h-37.038c-1.089 0-1.906 0.817-1.906 1.906v28.187c0 1.089 0.817 1.906 1.906 1.906h37.038c1.021 0 1.906-0.817 1.906-1.906v-28.187c0-1.089-0.817-1.906-1.906-1.906zM14.979 27.166c0 0.817-0.681 1.43-1.43 1.43h-8.715c-0.749 0-1.43-0.681-1.43-1.43v-8.715c0-0.749 0.681-1.43 1.43-1.43h8.715c0.817 0 1.43 0.681 1.43 1.43v8.715zM14.979 13.549c0 0.817-0.681 1.43-1.43 1.43h-8.715c-0.749 0-1.43-0.681-1.43-1.43v-8.715c0-0.749 0.681-1.43 1.43-1.43h8.715c0.749 0 1.43 0.681 1.43 1.43v8.715zM23.83 24.511c0 2.247-1.498 4.085-3.404 4.085s-3.404-1.838-3.404-4.085c0-1.362 0.545-2.519 1.362-3.268v-10.485c-0.817-0.749-1.362-1.906-1.362-3.268 0-2.247 1.498-4.085 3.404-4.085s3.404 1.838 3.404 4.085c0 1.362-0.545 2.519-1.362 3.268v10.485c0.817 0.749 1.362 1.906 1.362 3.268zM37.447 27.166c0 0.817-0.681 1.43-1.43 1.43h-8.715c-0.749 0-1.43-0.681-1.43-1.43v-8.715c0-0.817 0.681-1.43 1.43-1.43h8.715c0.817 0 1.43 0.681 1.43 1.43v8.715zM37.447 13.549c0 0.817-0.681 1.43-1.43 1.43h-8.715c-0.749 0-1.43-0.681-1.43-1.43v-8.715c0-0.749 0.681-1.43 1.43-1.43h8.715c0.749 0 1.43 0.681 1.43 1.43v8.715z"></path>
<path d="M36.017 4.766h-8.715c0 0-0.068 0.068-0.068 0.068v8.715c0 0.068 0.068 0.068 0.068 0.068h8.715c0.068 0 0.068-0.068 0.068-0.068v-8.715c0 0-0.068-0.068-0.068-0.068z"></path>
<path d="M36.017 18.383h-8.715c-0.068 0-0.068 0.068-0.068 0.068v8.715c0 0.068 0.068 0.068 0.068 0.068h8.715c0.068 0 0.068-0.068 0.068-0.068v-8.715c0 0-0.068-0.068-0.068-0.068z"></path>
</g>
<g id="icon-foundation" viewBox="0 0 23 32">
<path d="M23.024 21.251c-0.071-2.803-2.377-5.073-5.215-5.073h-3.051c-2.803 0-5.109 2.235-5.215 5.073l-0.284 9.224c0 0.816 0.674 1.526 1.526 1.526h10.998c0.816 0 1.526-0.674 1.526-1.526l-0.284-9.224z"></path>
<path d="M14.333 14.155h3.938v1.49h-3.938v-1.49z"></path>
<path d="M18.27 13.091h-0.035c0-0.284-0.213-0.497-0.497-0.497h-2.909c-0.284 0-0.497 0.213-0.497 0.497v0.639h3.938v-0.639z"></path>
<path d="M21.747 2.058c0.248-1.277-1.384-1.951-2.696-0.603 0 0 0.78 0.78 0.922 1.88 0.035 0.035 1.632-0.461 1.774-1.277z"></path>
<path d="M2.412 13.8c0 0 0.426-2.164 1.419-3.122 0.603-0.568 3.583-1.845 6.315-2.945 0.355-0.142 0.71-0.284 1.029-0.426 1.1-0.461 2.058-0.851 2.767-1.135 0.603-0.248 0.851-0.958 0.497-1.49 0 0 0 0 0-0.035-0.213-0.319-0.532-0.497-0.887-0.497-0.142 0-0.319 0.035-0.461 0.106-0.674 0.319-1.809 0.851-3.016 1.419h-0.035c-2.483 1.171-5.499 2.59-6.599 3.193-2.448 1.242-2.093 4.931-2.093 4.931h1.064z"></path>
<path d="M2.448 15.858c-0.106-0.106-0.319-0.461-0.39-0.568l-0.071-0.106c-0.035-0.071-0.142-0.071-0.177 0l-0.035 0.106c-0.071 0.142-0.284 0.461-0.39 0.568-0.816 0.745-1.384 1.277-1.384 2.377 0 1.526 1.171 2.554 2.483 2.164 0.816-0.248 1.384-1.135 1.384-2.2-0.035-1.029-0.532-1.49-1.419-2.341z"></path>
<path d="M10.466 4.789c-0.035-1.171 0.39-2.093 1.206-2.412 1.206-0.497 2.838 0.674 3.619 2.59s0.426 3.867-0.78 4.364c-0.958 0.39-2.129-0.248-2.98-1.455-0.319 0.142-0.674 0.284-1.064 0.426 1.171 1.845 3.051 2.838 4.541 2.235 0.248-0.106 0.461-0.248 0.639-0.39l3.335-2.661c0.674-0.532 1.064-1.348 1.064-2.235-0.035-2.483-1.384-3.938-2.448-4.718-0.674-0.461-1.49-0.639-2.306-0.426l-3.406 0.851c-0.213 0.035-0.461 0.071-0.674 0.177-1.348 0.568-2.022 2.235-1.809 4.151 0.319-0.177 0.71-0.355 1.064-0.497z"></path>
</g>
<g id="icon-lip-liner" viewBox="0 0 52 32">
<path d="M42.436 5.543c-2.186-2.186-4.767-3.892-7.644-5.049-2.595-1.044-5.585-0.423-7.587 1.594-0.592 0.578-1.537 0.578-2.115 0-2.017-2.017-4.992-2.637-7.587-1.594-2.877 1.156-5.458 2.863-7.644 5.049l-9.858 9.858 9.858 9.858c4.485 4.485 10.394 6.741 16.289 6.741s11.804-2.242 16.289-6.741l9.858-9.858-9.858-9.858zM38.516 21.338c-6.812 6.812-17.911 6.812-24.723 0l-5.937-5.937 5.937-5.937c1.664-1.664 3.61-2.948 5.782-3.822 0.522-0.212 1.156-0.056 1.58 0.367 2.75 2.75 7.221 2.75 9.971 0 0.423-0.423 1.058-0.578 1.58-0.367 2.186 0.874 4.132 2.172 5.796 3.822l5.937 5.937-5.923 5.937z"></path>
<path d="M26.147 12.622c-2.087 0.014-4.16 0.451-5.726 1.185-1.565 0.663-2.609 1.594-2.609 1.594s1.044 0.931 2.609 1.594c1.565 0.733 3.653 1.185 5.726 1.185 2.087 0 4.16-0.437 5.726-1.185 1.565-0.663 2.609-1.594 2.609-1.594s-1.044-0.931-2.609-1.594c-1.565-0.747-3.639-1.185-5.726-1.185z"></path>
</g>
<g id="icon-lipstick" viewBox="0 0 9 32">
<path d="M8.252 17.445v-0.522h-0.801l-0.104-8.357h-0.348c0.279-3.865-0.174-6.477-1.358-7.765-0.662-0.696-1.358-0.801-1.602-0.801-0.139 0-0.209 0-0.209 0l-0.104 0.035c-0.557 0.313-1.010 0.975-1.323 1.811l-0.244 0.104c0 0 0 0.035 0.035 0.070s0.035 0.104 0.104 0.174c-0.696 2.159-0.766 5.258-0.731 6.372h-0.348v8.357h-0.662v0.522h-0.557v13.197c0 1.010 0.522 1.288 0.766 1.323 0.035 0 0.035 0 0.070 0s0.070 0 0.070 0h7.208l0.035-0.035c0.418-0.174 0.557-0.801 0.557-1.393v-13.092h-0.453zM1.010 20.683c-0.070-0.035-0.209-0.174-0.313-0.313v-2.194h7.312v2.507c-2.681 0.035-6.686 0.035-6.999 0zM4.318 9.262v7.661h-1.358v-7.66h1.358z"></path>
</g>
<g id="icon-mascara" viewBox="0 0 15 32">
<path d="M0 31.583c0 0.232 0.185 0.417 0.417 0.417h4.499c0.232 0 0.417-0.186 0.417-0.417v-17.020h-5.333v17.020z"></path>
<path d="M4.962 11.641h-4.545c-0.232 0-0.417 0.185-0.417 0.417v1.252c0 0.232 0.185 0.417 0.417 0.417h4.545c0.232 0 0.417-0.185 0.417-0.417v-1.252c0-0.232-0.186-0.417-0.417-0.417z"></path>
<path d="M4.916 0h-4.499c-0.232 0-0.417 0.185-0.417 0.417v10.388h5.38v-10.388c0-0.232-0.232-0.417-0.464-0.417z"></path>
<path d="M9.461 31.583c0 0.232 0.185 0.417 0.417 0.417h4.499c0.232 0 0.417-0.186 0.417-0.417v-10.388h-5.333v10.388z"></path>
<path d="M14.423 18.69h-4.499c-0.232 0-0.417 0.186-0.417 0.417v1.252c0 0.232 0.185 0.417 0.417 0.417h4.499c0.232 0 0.417-0.186 0.417-0.417v-1.252c0-0.232-0.185-0.417-0.417-0.417z"></path>
<path d="M10.713 3.942h0.835v0.185h-0.835c-0.046 0-0.139 0.046-0.139 0.139s0.046 0.139 0.139 0.139h0.835v0.186h-0.788c-0.046 0-0.139 0.046-0.139 0.139s0.046 0.139 0.139 0.139h0.788v0.186h-0.788c-0.046 0-0.139 0.046-0.139 0.139s0.046 0.139 0.139 0.139h0.788v0.186h-0.696c-0.046 0-0.139 0.046-0.139 0.139s0.046 0.139 0.139 0.139h0.696v0.186h-0.557c-0.046 0-0.139 0.046-0.139 0.139s0.046 0.139 0.139 0.139h0.557v0.186h-0.325c-0.046 0-0.139 0.046-0.139 0.139s0.046 0.139 0.139 0.139h0.325v11.826h1.252v-12.104h0.325c0.046 0 0.139-0.046 0.139-0.139s-0.046-0.139-0.139-0.139h-0.325v-0.139h0.51c0.046 0 0.139-0.046 0.139-0.139s-0.046-0.139-0.139-0.139h-0.51v-0.186h0.649c0.046 0 0.139-0.046 0.139-0.139s-0.046-0.139-0.139-0.139h-0.696v-0.186h0.788c0.046 0 0.139-0.046 0.139-0.139s-0.046-0.139-0.139-0.139h-0.788v-0.186h0.835c0.046 0 0.139-0.046 0.139-0.139s-0.046-0.139-0.139-0.139v0c0.046 0 0.139-0.046 0.139-0.139s-0.046-0.139-0.139-0.139h-0.835v-0.139h0.835c0.046 0 0.139-0.046 0.139-0.139s-0.046-0.093-0.139-0.093h-0.835v-0.185h0.788c0.046 0 0.139-0.046 0.139-0.139s-0.046-0.139-0.139-0.139h-0.788v-0.139h0.742c0.046 0 0.139-0.046 0.139-0.139s-0.046-0.139-0.139-0.139h-0.742v-0.093h0.649c0.046 0 0.139-0.046 0.139-0.139s-0.046-0.139-0.139-0.139h-0.649v-0.139h0.51c0.046 0 0.139-0.046 0.139-0.139s-0.046-0.139-0.139-0.139h-0.51v-0.371h-1.252v0.417h-0.464c-0.046 0-0.139 0.046-0.139 0.139s0.093 0.093 0.185 0.093h0.464v0.185h-0.649c-0.046 0-0.139 0.046-0.139 0.139s0.046 0.139 0.139 0.139h0.649v0.186h-0.742c-0.046 0-0.139 0.046-0.139 0.139s0.046 0.139 0.139 0.139h0.742v0.186h-0.788c-0.046 0-0.139 0.046-0.139 0.139s0.046 0.139 0.139 0.139h-0.046c-0.046 0-0.139 0.046-0.139 0.139s0.046 0.093 0.139 0.093z"></path>
</g>
<g id="icon-nail-polish" viewBox="0 0 16 32">
<path d="M11.876 13.902h-7.324c-3.164 4.729-6.649 12.124-2.987 18.098h13.298c3.662-5.973 0.213-13.369-2.987-18.098zM14.009 30.507h-5.796v-15.111h2.844c2.418 3.733 5.476 10.027 2.951 15.111z"></path>
<path d="M10.667 2.347c-0.32-2.098-1.209-2.347-2.453-2.347s-2.133 0.249-2.418 2.347l-1.138 10.347h7.111l-1.102-10.347z"></path>
</g>
</svg>
