<?xml version="1.0" encoding="utf-8"?>
<!-- Generator: Adobe Illustrator 23.0.3, SVG Export Plug-In . SVG Version: 6.00 Build 0)  -->
<svg version="1.1" id="Layer_1" xmlns="http://www.w3.org/2000/svg" xmlns:xlink="http://www.w3.org/1999/xlink" x="0px" y="0px"
	 viewBox="0 0 86.1 82.7" style="enable-background:new 0 0 86.1 82.7;" xml:space="preserve">
<style type="text/css">
	.st0{fill:none;}
</style>
<g>
	<path class="st0" d="M28,29.3c-14,0-25.4,11.4-25.4,25.4c0,14,11.4,25.4,25.4,25.4c14,0,25.4-11.4,25.4-25.4
		C53.5,40.7,42.1,29.3,28,29.3z M28,77.5c-12.5,0-22.8-10.2-22.8-22.8S15.5,32,28,32s22.8,10.2,22.8,22.8S40.6,77.5,28,77.5z"/>
	<path class="st0" d="M29.3,34.5v40.4c10.6-0.7,19-9.4,19-20.2S39.9,35.2,29.3,34.5z"/>
	<path class="st0" d="M27.9,22.8c-3.3,0-6.4-0.2-9.3-0.6c0.9,1.9,1,4.1,0.3,6.1c2.8-1,5.9-1.5,9.1-1.5c3,0,5.9,0.5,8.6,1.4
		c-0.3-0.8-0.4-1.7-0.4-2.5c0-1.2,0.3-2.3,0.7-3.4C34.2,22.6,31.1,22.8,27.9,22.8z"/>
	<path class="st0" d="M7.8,54.7c0,10.7,8.4,19.5,19,20.2V34.5C16.2,35.2,7.8,44,7.8,54.7z"/>
	<path class="st0" d="M53.4,11.4c0-4.2-10.4-8.9-25.4-8.9c-15,0-25.4,4.7-25.4,8.9c0,4.2,10.4,8.9,25.4,8.9
		C42.9,20.3,53.4,15.6,53.4,11.4z M7,11.4c0-4.6,10.8-6.7,20.9-6.7s20.9,2.1,20.9,6.7c0,4.6-10.8,6.7-20.9,6.7S7,16,7,11.4z"/>
	<path class="st0" d="M27.9,7.2C16,7.2,9.5,10,9.5,11.4s6.5,4.2,18.4,4.2c11.9,0,18.4-2.8,18.4-4.2S39.9,7.2,27.9,7.2z"/>
	<path class="st0" d="M80.9,19.1l-6.7,10c-0.2,0.4-0.6,0.6-1,0.6c-0.2,0-0.5-0.1-0.7-0.2c-0.6-0.4-0.7-1.2-0.4-1.7l6.7-10.1
		c-1.2-0.7-2.5-1.3-3.9-1.7l-1.6,5.9c-0.1,0.6-0.7,0.9-1.2,0.9c-0.1,0-0.2,0-0.3,0c-0.7-0.2-1.1-0.9-0.9-1.5l1.6-5.8
		c-0.6-0.1-1.3-0.1-1.9-0.1c-0.8,0-1.6,0.1-2.4,0.2l0.4,7c0,0.7-0.5,1.3-1.2,1.3c0,0,0,0-0.1,0c-0.7,0-1.2-0.5-1.3-1.2l-0.3-6.6
		c-1.1,0.3-2.1,0.8-3.1,1.4l4.5,13.9l6.5,1.3l9.7-11C82.6,20.7,81.8,19.9,80.9,19.1z"/>
	<path class="st0" d="M66.6,36.9l3.7,0.8l-0.5,2.5l-3.6-0.7L59.5,79c0.4,0.3,1,0.6,1.7,0.6c0.2,0,0.4,0,0.6-0.1l9.9-40.4l0.8-4
		L67.2,34L66.6,36.9z"/>
	<path d="M86.1,21.5l0-0.3L85.9,21c-1.3-1.9-2.8-3.5-4.6-4.8c0,0,0,0,0,0c0,0,0,0,0,0c-3.1-2.2-6.8-3.4-10.7-3.4
		c-3.6,0-7.1,1-10.1,3L60.2,16l-0.1,0.3c-0.1,0.2-0.3,0.7-0.2,1.2l4.9,15.2l-1,5l-7,42.2l0.4,0.5c0.2,0.2,1.7,1.7,4,1.7
		c0.7,0,1.5-0.2,2.2-0.5l0.6-0.3l10.2-41.7l1-4.9l10.5-12C86,22.4,86.2,22,86.1,21.5z M71.8,39.1l-9.9,40.4c-0.2,0-0.4,0.1-0.6,0.1
		c-0.7,0-1.3-0.3-1.7-0.6l6.6-39.6l3.6,0.7l0.5-2.5l-3.7-0.8l0.6-2.9l5.4,1.1L71.8,39.1z M73.7,32.7l-6.5-1.3l-4.5-13.9
		c1-0.6,2-1,3.1-1.4l0.3,6.6c0,0.7,0.6,1.2,1.3,1.2c0,0,0,0,0.1,0c0.7,0,1.2-0.6,1.2-1.3l-0.4-7c0.8-0.1,1.6-0.2,2.4-0.2
		c0.6,0,1.3,0,1.9,0.1l-1.6,5.8c-0.2,0.7,0.2,1.4,0.9,1.5c0.1,0,0.2,0,0.3,0c0.6,0,1.1-0.4,1.2-0.9l1.6-5.9c1.4,0.4,2.7,1,3.9,1.7
		l-6.7,10.1c-0.4,0.6-0.2,1.4,0.4,1.7c0.2,0.1,0.5,0.2,0.7,0.2c0.4,0,0.8-0.2,1-0.6l6.7-10c0.9,0.8,1.7,1.6,2.4,2.6L73.7,32.7z"/>
	<path d="M48.9,11.4c0-4.6-10.8-6.7-20.9-6.7S7,6.8,7,11.4c0,4.6,10.8,6.7,20.9,6.7S48.9,16,48.9,11.4z M27.9,15.6
		c-11.9,0-18.4-2.8-18.4-4.2S16,7.2,27.9,7.2c11.9,0,18.4,2.8,18.4,4.2S39.9,15.6,27.9,15.6z"/>
	<path d="M40.4,29.7C40.4,29.7,40.4,29.7,40.4,29.7c-1.1-1.1-1.7-2.6-1.7-4.1c0-1.5,0.6-2.9,1.6-3.9c9.4-1.8,15.6-5.6,15.6-10.3
		C55.9,4.9,43.9,0,27.9,0C12,0,0,4.9,0,11.4c0,4.6,6.1,8.4,15.3,10.2c2.2,2.3,2.1,5.8-0.1,8.1c-0.1,0.1-0.2,0.2-0.2,0.3
		C6.2,34.7,0.1,44,0.1,54.7c0,15.4,12.5,27.9,27.9,27.9C43.4,82.7,56,70.1,56,54.7C56,43.8,49.6,34.3,40.4,29.7z M2.5,11.4
		c0-4.2,10.4-8.9,25.4-8.9c15,0,25.4,4.7,25.4,8.9c0,4.2-10.4,8.9-25.4,8.9C13,20.3,2.5,15.6,2.5,11.4z M36.6,28.1
		c-2.7-0.9-5.6-1.4-8.6-1.4c-3.2,0-6.2,0.5-9.1,1.5c0.7-2,0.6-4.2-0.3-6.1c2.9,0.4,6,0.6,9.3,0.6c3.2,0,6.2-0.2,9-0.6
		c-0.5,1.1-0.7,2.2-0.7,3.4C36.2,26.5,36.4,27.3,36.6,28.1z M28,80.2c-14,0-25.4-11.4-25.4-25.4c0-14,11.4-25.4,25.4-25.4
		c14,0,25.4,11.4,25.4,25.4C53.5,68.7,42.1,80.2,28,80.2z"/>
	<path d="M28,32C15.5,32,5.3,42.2,5.3,54.7S15.5,77.5,28,77.5s22.8-10.2,22.8-22.8S40.6,32,28,32z M26.8,74.9
		c-10.6-0.7-19-9.4-19-20.2c0-10.7,8.4-19.5,19-20.2V74.9z M29.3,74.9V34.5c10.6,0.7,19,9.4,19,20.2S39.9,74.2,29.3,74.9z"/>
</g>
</svg>
