<?xml version="1.0" encoding="utf-8"?>
<!-- Generator: Adobe Illustrator 23.0.3, SVG Export Plug-In . SVG Version: 6.00 Build 0)  -->
<svg version="1.1" id="Layer_1" xmlns="http://www.w3.org/2000/svg" xmlns:xlink="http://www.w3.org/1999/xlink" x="0px" y="0px"
	 viewBox="0 0 512 394.7" style="enable-background:new 0 0 512 394.7;" xml:space="preserve">
<style type="text/css">
	.st0{fill:none;}
</style>
<g>
	<path class="st0" d="M189.5,194.4c-57.8,15.5-105.3,58.3-125.8,79.1c20.5,20.8,68,63.5,125.7,79.1c-28.2-15.1-47.3-44.9-47.3-79.1
		C142,239.3,161.2,209.5,189.5,194.4z"/>
	<path class="st0" d="M231.7,252.7c-11.5,0-20.8,9.3-20.8,20.8s9.3,20.8,20.8,20.8s20.8-9.3,20.8-20.8S243.2,252.7,231.7,252.7z"/>
	<path class="st0" d="M274,194.4c28.2,15.1,47.3,44.9,47.3,79.1c0,34.3-19.2,64-47.5,79.1c57.8-15.5,105.3-58.3,125.8-79.1
		C379.2,252.8,331.6,210,274,194.4z"/>
	<path d="M62.3,118.9c81.2-28.7,293.2-70.1,428.7,5.9c0,0-57-104.4-244.6-122.9C164.5-6.1,85.1,12,31.3,30.7
		C8,38.8-4.9,63.7,1.8,87.5C9.1,113.5,36.8,128,62.3,118.9z"/>
	<path d="M479.5,231.9c-9.1,18.5-30.6,27-49.6,20.6c-1.5-1.5-3.1-3.2-4.9-5c4.2-1.7,8.2-3.8,12.1-6.3c17.3-11.1,29.3-28.3,33.7-48.4
		l-35.4-7.8c-2.3,10.6-8.7,19.7-17.9,25.6c-8,5.1-17.3,7.2-26.6,6.2c-1.5-1.2-3-2.4-4.5-3.6c20.3-13.8,33.8-36.9,34-63.3l-36.3-0.3
		c-0.1,19.5-14.1,35.8-32.4,39.6c-40.3-24.3-81.3-36.9-120-36.9c-47.4,0-98.3,19-147.1,55.1c-36.2,26.7-58.7,53.4-59.6,54.5
		l-9.8,11.6l9.8,11.6c0.9,1.1,23.4,27.7,59.6,54.5c48.8,36,99.6,55.1,147.1,55.1s98.3-19,147.1-55.1c27.2-20.1,46.6-40.1,55-49.3
		c3,0.4,6,0.5,9,0.5c28.4,0,55.8-15.8,69.2-42.9L479.5,231.9z M189.3,352.6C131.7,337,84.1,294.3,63.7,273.5
		c20.5-20.8,68-63.6,125.8-79.1c-28.3,15.1-47.5,44.9-47.5,79.1C142,307.7,161.2,337.5,189.3,352.6z M231.7,294.4
		c-11.5,0-20.8-9.3-20.8-20.8s9.3-20.8,20.8-20.8s20.8,9.3,20.8,20.8S243.2,294.4,231.7,294.4z M273.9,352.7
		c28.3-15.1,47.5-44.9,47.5-79.1c0-34.2-19.2-63.9-47.3-79.1c57.6,15.6,105.2,58.3,125.7,79.1C379.2,294.4,331.7,337.1,273.9,352.7z
		"/>
</g>
</svg>
