<?xml version="1.0" encoding="utf-8"?>
<!-- Generator: Adobe Illustrator 23.0.3, SVG Export Plug-In . SVG Version: 6.00 Build 0)  -->
<svg version="1.1" id="Layer_1" xmlns="http://www.w3.org/2000/svg" xmlns:xlink="http://www.w3.org/1999/xlink" x="0px" y="0px"
	 viewBox="0 0 84.5 54.5" style="enable-background:new 0 0 84.5 54.5;" xml:space="preserve">
<style type="text/css">
	.st0{fill:none;}
</style>
<g>
	<path class="st0" d="M45,38.8v0.1c-0.7,0.2-1.2,0.5-1.6,1.1c-0.5,0.7-0.7,1.4-0.5,2.3c0.1,0.8,0.5,1.5,1.3,1.9
		c0.7,0.5,1.5,0.7,2.3,0.5l0.2,0c-0.2,0.6-0.5,1.2-0.9,1.9c-0.9,1.4-2.2,2.2-3.9,2.6c-1.6,0.3-3.1-0.1-4.5-1.1
		c-1.4-0.9-2.3-2.2-2.5-3.8c-0.3-1.7,0.1-3.2,1-4.5l0-0.1c-1.4,0.2-2.6,0.4-3.7,0.7c-0.3,0.8-0.4,1.8-0.4,3c0,2.5,0.9,4.7,2.6,6.4
		c1.8,1.8,4,2.8,6.5,2.8c2.5,0,4.7-0.9,6.5-2.8c1.7-1.7,2.6-3.9,2.6-6.4c0-1.6-0.3-3-1-4.2L45,38.8z"/>
	<path d="M78.8,34.8c-1,0.7-2.3,1.3-3.8,1.9c-1.1,0.2-1.4-0.1-0.8-0.9c2.6-2.2,4.2-4.1,4.7-5.8c0.3-0.9,0.4-1.5,0.3-1.8
		c-0.1-0.3-0.4-0.3-0.9,0l-2.9,2c-0.8,0.6-2.1,1.1-3.7,1.5c-1.2,0.2-2.4,0.3-3.5,0.3c-0.7-0.1-0.9-0.5-0.6-1.3l1.2-3.5
		c0.2-0.5,0.2-0.8,0-1c-0.2-0.1-0.5,0.1-1,0.6c-2.1,1.8-4.3,2.7-6.5,2.6c-0.5,0-0.8-0.3-0.8-1v-1.3c0-1.1-0.3-1.3-1-0.5
		c-1.4,1.6-4.2,2.5-8.5,2.5c-9.9-0.3-18.6,1.3-26.2,4.8c-4.1,2.2-8.4,5.6-13.1,10.2l-5,5C5.9,50,6,50.2,7.1,49.8
		c6.5-3.5,13.3-6.4,20.6-8.6l2-0.5c-0.2,0.7-0.3,1.5-0.3,2.5c0,3.2,1.1,5.8,3.2,8c2.2,2.2,4.9,3.3,8,3.3c3.1,0,5.7-1.1,8-3.3
		c2.2-2.2,3.3-4.9,3.3-8c0-1.4-0.2-2.7-0.6-3.9l8.8,1.7c0.9,0.2,1.2,0.6,0.9,1.3c-1.5,4.9-4.7,8.5-9.6,10.8c-1.3,0.8-1.2,1,0.3,0.8
		c6.2-1.9,10.8-5.1,13.8-9.6l1.4-2.5c0.3-0.5,0.8-0.8,1.6-0.9c2.4-0.3,4.8-1.1,7.3-2.5c1.4-0.7,2.7-1.7,3.9-3
		C81.2,33.6,81,33.5,78.8,34.8z M47.2,49.6c-1.8,1.8-4,2.8-6.5,2.8c-2.5,0-4.6-0.9-6.5-2.8c-1.7-1.7-2.6-3.9-2.6-6.4
		c0-1.2,0.1-2.2,0.4-3c1.1-0.3,2.3-0.5,3.7-0.7l0,0.1c-0.9,1.3-1.3,2.8-1,4.5c0.3,1.7,1.1,3,2.5,3.8c1.4,1,3,1.4,4.5,1.1
		c1.7-0.4,3-1.2,3.9-2.6c0.5-0.7,0.8-1.3,0.9-1.9l-0.2,0c-0.8,0.2-1.5,0-2.3-0.5c-0.7-0.4-1.1-1.1-1.3-1.9c-0.2-0.8,0-1.6,0.5-2.3
		c0.4-0.6,0.9-1,1.6-1.1v-0.1l3.8,0.2c0.7,1.2,1,2.6,1,4.2C49.8,45.7,48.9,47.8,47.2,49.6z"/>
	<path d="M25,44.2c-0.1-0.4-0.3-0.6-0.8-0.5l-0.8,0.3c-0.3,0.2-0.4,0.5-0.5,1c-0.3,1.8,0.6,4.1,2.7,7.1c0.9,0.9,1.4,1.4,1.5,1.3
		c0.1,0-0.2-0.6-0.9-1.6C25.1,49.8,24.7,47.3,25,44.2z"/>
	<path d="M44.4,26.4c3.5-0.1,3.5-0.4,0-0.9c-11.2-0.6-20.2,2.2-27,8.5c-1.1,1.2-1,1.4,0.4,0.5C27.1,29,36,26.3,44.4,26.4z"/>
	<path d="M82.1,2.7C74.4,0.3,66.4-0.5,58,0.3c-3.8,0.4-7,0.9-9.5,1.4c-6,1.2-11.9,2.8-17.8,4.9c-9.2,3.3-17.7,5.9-25.6,8
		c-3.9,1.1-5.6,2.9-4.9,5.5c0.6,2.1,2.5,3,5.6,2.8c5.3-0.6,13-3.1,23-7.3c6.9-3.1,14.3-6.2,22.2-9.3C60.2,3,70.8,2.1,82.6,3.5
		C85.2,3.8,85.1,3.6,82.1,2.7z"/>
</g>
</svg>
