<?xml version="1.0" encoding="utf-8"?>
<!-- Generator: Adobe Illustrator 23.0.3, SVG Export Plug-In . SVG Version: 6.00 Build 0)  -->
<svg version="1.1" id="Layer_1" xmlns="http://www.w3.org/2000/svg" xmlns:xlink="http://www.w3.org/1999/xlink" x="0px" y="0px"
	 viewBox="0 0 61.1 87.3" style="enable-background:new 0 0 61.1 87.3;" xml:space="preserve">
<style type="text/css">
	.st0{fill:none;}
</style>
<g>
	<polygon class="st0" points="22.8,14.9 25,14.9 23.9,12.6 	"/>
	<path d="M28.2,15.8C28.2,15.7,28.2,15.7,28.2,15.8c0-0.1,0-0.1,0-0.1l-2.5-5.2c-0.1-0.2-0.3-0.4-0.5-0.5V8.6c0-0.7-0.6-1.3-1.3-1.3
		c-0.7,0-1.3,0.6-1.3,1.3v1.3c-0.2,0.1-0.4,0.3-0.5,0.5l-2.5,5.2c0,0,0,0,0,0c0,0,0,0.1,0,0.1c0,0.1-0.1,0.2-0.1,0.4c0,0,0,0,0,0.1
		v63.4h8.7V16.2c0,0,0,0,0-0.1C28.2,16,28.2,15.9,28.2,15.8z M22.8,14.9l1.1-2.3l1.1,2.3H22.8z"/>
	<path d="M8.3,56.6c-0.1-0.3-0.3-0.6-0.6-0.7c-0.3-0.1-0.6-0.2-1,0l-5.8,2.1c-0.7,0.2-1,1-0.8,1.6l8.6,24.2c0.2,0.5,0.7,0.8,1.2,0.8
		c0.1,0,0.3,0,0.4-0.1l5.8-2.1c0.3-0.1,0.6-0.3,0.7-0.6c0.1-0.3,0.2-0.6,0-1L8.3,56.6z"/>
	<path d="M19.6,86c0,0.7,0.6,1.3,1.3,1.3H27c0.7,0,1.3-0.6,1.3-1.3v-3.9h-8.7V86z"/>
	<path d="M59.2,35.7c-0.8-0.6-2.1-1.2-4.3-0.6c-1.1,0.3-2,0.9-2.9,1.4c-1.2,0.7-2.1,1.3-3.3,1.3c-2.7-0.1-3.7-3.2-3.6-5.2
		c0.1-4.6,2.4-9,4.6-13.3c0.5-1,1-2,1.5-2.9c1.5-3.1,1.8-7,0.7-10c-0.8-2.2-2.3-3.9-4.3-4.9c-5.8-2.8-16.7-1.8-21.2,3.2
		c-0.5,0.5-0.4,1.3,0.1,1.8c0.5,0.5,1.3,0.4,1.8-0.1c3.7-4.1,13.4-5,18.3-2.6c1.4,0.7,2.4,1.8,3,3.4c1,2.7,0.4,6-0.6,8
		c-0.5,0.9-1,1.9-1.5,2.9c-2.3,4.5-4.8,9.2-4.9,14.4c-0.1,3.8,2,7.6,6,7.8c1.9,0.1,3.4-0.8,4.7-1.6c0.8-0.5,1.5-0.9,2.3-1.1
		c0.9-0.3,1.7-0.2,2.1,0.2c0.7,0.5,1,1.9,0.9,3.6c0,0.7,0.5,1.3,1.2,1.3c0,0,0,0,0.1,0c0.7,0,1.2-0.5,1.3-1.2
		C61.2,38.8,60.6,36.8,59.2,35.7z"/>
</g>
</svg>
