<?xml version="1.0" encoding="utf-8"?>
<!-- Generator: Adobe Illustrator 23.0.3, SVG Export Plug-In . SVG Version: 6.00 Build 0)  -->
<svg version="1.1" id="Layer_1" xmlns="http://www.w3.org/2000/svg" xmlns:xlink="http://www.w3.org/1999/xlink" x="0px" y="0px"
	 viewBox="0 0 60 47" style="enable-background:new 0 0 60 47;" xml:space="preserve">
<style type="text/css">
	.st0{fill:none;}
</style>
<g>
	<path class="st0" d="M35,11c0-3.3-2.2-6-5-6s-5,2.7-5,6c0,2,0.8,3.7,2,4.8v15.4c-1.2,1.1-2,2.8-2,4.8c0,3.3,2.2,6,5,6s5-2.7,5-6
		c0-2-0.8-3.7-2-4.8V15.8C34.2,14.7,35,13,35,11z M30,40c-1.7,0-3-1.8-3-4c0-1.4,0.5-2.6,1.3-3.3l0.3-0.2c0.3-0.2,0.6-0.4,0.9-0.4
		c0.1,0,0.3-0.1,0.4-0.1c0,0,0.1,0,0.1,0c0.1,0,0.3,0,0.4,0.1c0.3,0.1,0.6,0.2,0.9,0.4l0.3,0.2c0.8,0.7,1.3,1.9,1.3,3.3
		C33,38.2,31.7,40,30,40z M29,30.1V16.9c0.3,0.1,0.7,0.1,1,0.1s0.7,0,1-0.1v13.2C30.7,30,30.3,30,30,30S29.3,30,29,30.1z M31.7,14.3
		l-0.3,0.2c-0.3,0.2-0.6,0.4-0.9,0.4c-0.1,0-0.3,0.1-0.4,0.1c0,0-0.1,0-0.1,0c-0.1,0-0.3,0-0.4-0.1c-0.3-0.1-0.6-0.2-0.9-0.4
		l-0.3-0.2C27.5,13.6,27,12.4,27,11c0-2.2,1.3-4,3-4c1.7,0,3,1.8,3,4C33,12.4,32.5,13.6,31.7,14.3z"/>
	<path class="st0" d="M19.9,25H7.1C6,25,5,26,5,27.1v12.8C5,41,6,42,7.1,42h12.8c1.2,0,2.1-1,2.1-2.1V27.1C22,26,21,25,19.9,25z
		 M20,39.9c0,0.1-0.1,0.1-0.1,0.1H7.1C7.1,40,7,39.9,7,39.9V27.1C7,27.1,7.1,27,7.1,27h12.8c0.1,0,0.1,0.1,0.1,0.1V39.9z"/>
	<path class="st0" d="M52.9,25H40.1C39,25,38,26,38,27.1v12.8c0,1.2,1,2.1,2.1,2.1h12.8c1.2,0,2.1-1,2.1-2.1V27.1
		C55,26,54,25,52.9,25z M53,39.9c0,0.1-0.1,0.1-0.1,0.1H40.1c-0.1,0-0.1-0.1-0.1-0.1V27.1c0-0.1,0.1-0.1,0.1-0.1h12.8
		c0.1,0,0.1,0.1,0.1,0.1V39.9z"/>
	<path class="st0" d="M19.9,5H7.1C6,5,5,6,5,7.1v12.8C5,21,6,22,7.1,22h12.8c1.2,0,2.1-1,2.1-2.1V7.1C22,6,21,5,19.9,5z M20,19.9
		c0,0.1-0.1,0.1-0.1,0.1H7.1C7.1,20,7,19.9,7,19.9V7.1C7,7.1,7.1,7,7.1,7h12.8C19.9,7,20,7.1,20,7.1V19.9z"/>
	<path class="st0" d="M52.9,5H40.1C39,5,38,6,38,7.1v12.8c0,1.2,1,2.1,2.1,2.1h12.8c1.2,0,2.1-1,2.1-2.1V7.1C55,6,54,5,52.9,5z
		 M53,19.9c0,0.1-0.1,0.1-0.1,0.1H40.1c-0.1,0-0.1-0.1-0.1-0.1V7.1C40,7.1,40.1,7,40.1,7h12.8C52.9,7,53,7.1,53,7.1V19.9z"/>
	<path d="M31.4,32.5c-0.3-0.2-0.6-0.4-0.9-0.4c-0.1,0-0.3-0.1-0.4-0.1c0,0-0.1,0-0.1,0c-0.1,0-0.3,0-0.4,0.1
		c-0.3,0.1-0.6,0.2-0.9,0.4l-0.3,0.2C27.5,33.4,27,34.6,27,36c0,2.2,1.3,4,3,4c1.7,0,3-1.8,3-4c0-1.4-0.5-2.6-1.3-3.3L31.4,32.5z"/>
	<path d="M30,7c-1.7,0-3,1.8-3,4c0,1.4,0.5,2.6,1.3,3.3l0.3,0.2c0.3,0.2,0.6,0.4,0.9,0.4c0.1,0,0.3,0.1,0.4,0.1c0,0,0.1,0,0.1,0
		c0.1,0,0.3,0,0.4-0.1c0.3-0.1,0.6-0.2,0.9-0.4l0.3-0.2c0.8-0.7,1.3-1.9,1.3-3.3C33,8.8,31.7,7,30,7z"/>
	<path d="M19.9,7H7.1C7.1,7,7,7.1,7,7.1v12.8C7,19.9,7.1,20,7.1,20h12.8c0.1,0,0.1-0.1,0.1-0.1V7.1C20,7.1,19.9,7,19.9,7z"/>
	<path d="M19.9,27H7.1C7.1,27,7,27.1,7,27.1v12.8C7,39.9,7.1,40,7.1,40h12.8c0.1,0,0.1-0.1,0.1-0.1V27.1C20,27.1,19.9,27,19.9,27z"
		/>
	<path d="M31,30.1V16.9C30.7,17,30.3,17,30,17s-0.7,0-1-0.1v13.2c0.3-0.1,0.7-0.1,1-0.1S30.7,30,31,30.1z"/>
	<path d="M57.2,0H2.8C1.2,0,0,1.2,0,2.8v41.4C0,45.8,1.2,47,2.8,47h54.4c1.5,0,2.8-1.2,2.8-2.8V2.8C60,1.2,58.8,0,57.2,0z M22,39.9
		c0,1.2-1,2.1-2.1,2.1H7.1C6,42,5,41,5,39.9V27.1C5,26,6,25,7.1,25h12.8c1.2,0,2.1,1,2.1,2.1V39.9z M22,19.9c0,1.2-1,2.1-2.1,2.1
		H7.1C6,22,5,21,5,19.9V7.1C5,6,6,5,7.1,5h12.8C21,5,22,6,22,7.1V19.9z M35,36c0,3.3-2.2,6-5,6s-5-2.7-5-6c0-2,0.8-3.7,2-4.8V15.8
		c-1.2-1.1-2-2.8-2-4.8c0-3.3,2.2-6,5-6s5,2.7,5,6c0,2-0.8,3.7-2,4.8v15.4C34.2,32.3,35,34,35,36z M55,39.9c0,1.2-1,2.1-2.1,2.1
		H40.1C39,42,38,41,38,39.9V27.1c0-1.2,1-2.1,2.1-2.1h12.8c1.2,0,2.1,1,2.1,2.1V39.9z M55,19.9c0,1.2-1,2.1-2.1,2.1H40.1
		C39,22,38,21,38,19.9V7.1C38,6,39,5,40.1,5h12.8C54,5,55,6,55,7.1V19.9z"/>
	<path d="M52.9,7H40.1C40.1,7,40,7.1,40,7.1v12.8c0,0.1,0.1,0.1,0.1,0.1h12.8c0.1,0,0.1-0.1,0.1-0.1V7.1C53,7.1,52.9,7,52.9,7z"/>
	<path d="M52.9,27H40.1c-0.1,0-0.1,0.1-0.1,0.1v12.8c0,0.1,0.1,0.1,0.1,0.1h12.8c0.1,0,0.1-0.1,0.1-0.1V27.1
		C53,27.1,52.9,27,52.9,27z"/>
</g>
</svg>
