<?xml version="1.0" encoding="utf-8"?>
<!-- Generator: Adobe Illustrator 23.0.3, SVG Export Plug-In . SVG Version: 6.00 Build 0)  -->
<svg version="1.1" id="Layer_1" xmlns="http://www.w3.org/2000/svg" xmlns:xlink="http://www.w3.org/1999/xlink" x="0px" y="0px"
	 viewBox="0 0 65.7 90.2" style="enable-background:new 0 0 65.7 90.2;" xml:space="preserve">
<g>
	<path d="M64.9,59.9c-0.2-7.9-6.7-14.3-14.7-14.3h-8.6c-7.9,0-14.4,6.3-14.7,14.3l-0.8,26c0,2.3,1.9,4.3,4.3,4.3h31
		c2.3,0,4.3-1.9,4.3-4.3L64.9,59.9z"/>
	<rect x="40.4" y="39.9" width="11.1" height="4.2"/>
	<path d="M51.5,36.9h-0.1c0-0.8-0.6-1.4-1.4-1.4h-8.2c-0.8,0-1.4,0.6-1.4,1.4v1.8h11.1V36.9z"/>
	<path d="M61.3,5.8c0.7-3.6-3.9-5.5-7.6-1.7c0,0,2.2,2.2,2.6,5.3C56.4,9.5,60.9,8.1,61.3,5.8z"/>
	<path d="M6.8,38.9c0,0,1.2-6.1,4-8.8c1.7-1.6,10.1-5.2,17.8-8.3c1-0.4,2-0.8,2.9-1.2c3.1-1.3,5.8-2.4,7.8-3.2
		c1.7-0.7,2.4-2.7,1.4-4.2c0,0,0,0,0-0.1c-0.6-0.9-1.5-1.4-2.5-1.4c-0.4,0-0.9,0.1-1.3,0.3c-1.9,0.9-5.1,2.4-8.5,4h-0.1
		c-7,3.3-15.5,7.3-18.6,9c-6.9,3.5-5.9,13.9-5.9,13.9H6.8z"/>
	<path d="M6.9,44.7c-0.3-0.3-0.9-1.3-1.1-1.6l-0.2-0.3c-0.1-0.2-0.4-0.2-0.5,0L5,43.1c-0.2,0.4-0.8,1.3-1.1,1.6
		C1.6,46.8,0,48.3,0,51.4c0,4.3,3.3,7.2,7,6.1c2.3-0.7,3.9-3.2,3.9-6.2C10.8,48.4,9.4,47.1,6.9,44.7z"/>
	<path d="M29.5,13.5c-0.1-3.3,1.1-5.9,3.4-6.8c3.4-1.4,8,1.9,10.2,7.3c2.2,5.4,1.2,10.9-2.2,12.3c-2.7,1.1-6-0.7-8.4-4.1
		c-0.9,0.4-1.9,0.8-3,1.2c3.3,5.2,8.6,8,12.8,6.3c0.7-0.3,1.3-0.7,1.8-1.1l9.4-7.5c1.9-1.5,3-3.8,3-6.3c-0.1-7-3.9-11.1-6.9-13.3
		c-1.9-1.3-4.2-1.8-6.5-1.2l-9.6,2.4c-0.6,0.1-1.3,0.2-1.9,0.5c-3.8,1.6-5.7,6.3-5.1,11.7C27.4,14.4,28.5,13.9,29.5,13.5z"/>
</g>
</svg>
