<?xml version="1.0" encoding="utf-8"?>
<!-- Generator: Adobe Illustrator 23.0.3, SVG Export Plug-In . SVG Version: 6.00 Build 0)  -->
<svg version="1.1" id="Layer_1" xmlns="http://www.w3.org/2000/svg" xmlns:xlink="http://www.w3.org/1999/xlink" x="0px" y="0px"
	 viewBox="0 0 370.8 226.9" style="enable-background:new 0 0 370.8 226.9;" xml:space="preserve">
<style type="text/css">
	.st0{fill:none;}
</style>
<g>
	<path class="st0" d="M273,67.1c-11.8-11.7-25.6-20.9-41.1-27.1c-3.7-1.5-8.2-0.4-11.2,2.6c-19.5,19.5-51.2,19.5-70.7,0
		c-3-3-7.5-4.1-11.2-2.6c-15.4,6.2-29.2,15.3-41,27.1l-42.1,42.1l42.1,42.1c48.3,48.3,127,48.3,175.3,0l42-42.1L273,67.1z
		 M226,120.5c-11.1,5.3-25.8,8.4-40.6,8.4c-14.7,0-29.5-3.2-40.6-8.4c-11.1-4.7-18.5-11.3-18.5-11.3s7.4-6.6,18.5-11.3
		c11.1-5.2,25.8-8.3,40.6-8.4c14.8,0,29.5,3.1,40.6,8.4c11.1,4.7,18.5,11.3,18.5,11.3S237.1,115.8,226,120.5z"/>
	<path d="M300.9,39.3c-15.5-15.5-33.8-27.6-54.2-35.8c-18.4-7.4-39.6-3-53.8,11.3c-4.2,4.1-10.9,4.1-15,0
		C163.6,0.5,142.5-3.9,124.1,3.5c-20.4,8.2-38.7,20.3-54.2,35.8L0,109.2l69.9,69.9c31.8,31.8,73.7,47.8,115.5,47.8
		s83.7-15.9,115.5-47.8l69.9-69.9L300.9,39.3z M273.1,151.3c-48.3,48.3-127,48.3-175.3,0l-42.1-42.1l42.1-42.1
		c11.8-11.8,25.6-20.9,41-27.1c3.7-1.5,8.2-0.4,11.2,2.6c19.5,19.5,51.2,19.5,70.7,0c3-3,7.5-4.1,11.2-2.6
		c15.5,6.2,29.3,15.4,41.1,27.1l42.1,42.1L273.1,151.3z"/>
	<path d="M185.4,89.5c-14.8,0.1-29.5,3.2-40.6,8.4c-11.1,4.7-18.5,11.3-18.5,11.3s7.4,6.6,18.5,11.3c11.1,5.2,25.9,8.4,40.6,8.4
		c14.8,0,29.5-3.1,40.6-8.4c11.1-4.7,18.5-11.3,18.5-11.3s-7.4-6.6-18.5-11.3C214.9,92.6,200.2,89.5,185.4,89.5z"/>
</g>
</svg>
