<?xml version="1.0" encoding="utf-8"?>
<!-- Generator: Adobe Illustrator 23.0.3, SVG Export Plug-In . SVG Version: 6.00 Build 0)  -->
<svg version="1.1" id="Layer_1" xmlns="http://www.w3.org/2000/svg" xmlns:xlink="http://www.w3.org/1999/xlink" x="0px" y="0px"
	 viewBox="0 0 25 91.9" style="enable-background:new 0 0 25 91.9;" xml:space="preserve">
<style type="text/css">
	.st0{fill:none;}
</style>
<g>
	<path class="st0" d="M2,52.1v6.3c0.3,0.4,0.7,0.9,0.9,0.9c0.9,0.1,12.4,0.1,20.1,0v-7.2H2z"/>
	<polygon class="st0" points="12.4,48.6 12.4,26.6 8.5,26.6 8.5,48.6 	"/>
	<path d="M23.7,50.1v-1.5h-2.3l-0.3-24h-1c0.8-11.1-0.5-18.6-3.9-22.3c-1.9-2-3.9-2.3-4.6-2.3C11.2,0,11,0,11,0l-0.3,0.1
		C9.1,1,7.8,2.9,6.9,5.3L6.2,5.6c0,0,0,0.1,0.1,0.2c0.1,0.1,0.1,0.3,0.3,0.5c-2,6.2-2.2,15.1-2.1,18.3h-1v24H1.6v1.5H0v37.9
		c0,2.9,1.5,3.7,2.2,3.8c0.1,0,0.1,0,0.2,0c0.1,0,0.2,0,0.2,0h20.1h0.6l0.1-0.1c1.2-0.5,1.6-2.3,1.6-4V59.3v-9.2H23.7z M2.9,59.4
		c-0.2-0.1-0.6-0.5-0.9-0.9v-6.3h21v7.2C15.3,59.5,3.8,59.5,2.9,59.4z M12.4,26.6v22H8.5l0-22H12.4z"/>
</g>
</svg>
