<?xml version="1.0" encoding="utf-8"?>
<!-- Generator: Adobe Illustrator 23.0.3, SVG Export Plug-In . SVG Version: 6.00 Build 0)  -->
<svg version="1.1" id="Layer_1" xmlns:sketch="http://www.bohemiancoding.com/sketch/ns"
	 xmlns="http://www.w3.org/2000/svg" xmlns:xlink="http://www.w3.org/1999/xlink" x="0px" y="0px" viewBox="0 0 32 69"
	 style="enable-background:new 0 0 32 69;" xml:space="preserve">
<title>mascara</title>
<desc>Created with Sketch.</desc>
<g>
	<path d="M0,68.1C0,68.6,0.4,69,0.9,69h9.7c0.5,0,0.9-0.4,0.9-0.9V31.4H0V68.1z"/>
	<path d="M10.7,25.1H0.9C0.4,25.1,0,25.5,0,26v2.7c0,0.5,0.4,0.9,0.9,0.9h9.8c0.5,0,0.9-0.4,0.9-0.9V26
		C11.6,25.5,11.2,25.1,10.7,25.1z"/>
	<path d="M10.6,0H0.9C0.4,0,0,0.4,0,0.9v22.4h11.6V0.9C11.6,0.4,11.1,0,10.6,0z"/>
	<path d="M20.4,68.1c0,0.5,0.4,0.9,0.9,0.9h9.7c0.5,0,0.9-0.4,0.9-0.9V45.7H20.4V68.1z"/>
	<path d="M31.1,40.3h-9.7c-0.5,0-0.9,0.4-0.9,0.9v2.7c0,0.5,0.4,0.9,0.9,0.9h9.7c0.5,0,0.9-0.4,0.9-0.9v-2.7
		C32,40.7,31.6,40.3,31.1,40.3z"/>
	<path d="M23.1,8.5h1.8v0.4h-1.8c-0.1,0-0.3,0.1-0.3,0.3s0.1,0.3,0.3,0.3h1.8v0.4h-1.7c-0.1,0-0.3,0.1-0.3,0.3s0.1,0.3,0.3,0.3h1.7
		v0.4h-1.7c-0.1,0-0.3,0.1-0.3,0.3s0.1,0.3,0.3,0.3h1.7v0.4h-1.5c-0.1,0-0.3,0.1-0.3,0.3s0.1,0.3,0.3,0.3h1.5v0.4h-1.2
		c-0.1,0-0.3,0.1-0.3,0.3s0.1,0.3,0.3,0.3h1.2v0.4h-0.7c-0.1,0-0.3,0.1-0.3,0.3s0.1,0.3,0.3,0.3h0.7v25.5h2.7V13.9h0.7
		c0.1,0,0.3-0.1,0.3-0.3s-0.1-0.3-0.3-0.3h-0.7V13h1.1c0.1,0,0.3-0.1,0.3-0.3s-0.1-0.3-0.3-0.3h-1.1v-0.4H29c0.1,0,0.3-0.1,0.3-0.3
		s-0.1-0.3-0.3-0.3h-1.5v-0.4h1.7c0.1,0,0.3-0.1,0.3-0.3s-0.1-0.3-0.3-0.3h-1.7v-0.4h1.8c0.1,0,0.3-0.1,0.3-0.3s-0.1-0.3-0.3-0.3
		h-1.8V9.4h1.8c0.1,0,0.3-0.1,0.3-0.3s-0.1-0.3-0.3-0.3h-1.8V8.5h1.8c0.1,0,0.3-0.1,0.3-0.3S29.5,8,29.3,8h-1.8V7.6h1.7
		c0.1,0,0.3-0.1,0.3-0.3s-0.1-0.3-0.3-0.3h-1.7V6.7h1.6c0.1,0,0.3-0.1,0.3-0.3s-0.1-0.3-0.3-0.3h-1.6V5.9h1.4c0.1,0,0.3-0.1,0.3-0.3
		s-0.1-0.3-0.3-0.3h-1.4V5h1.1c0.1,0,0.3-0.1,0.3-0.3s-0.1-0.3-0.3-0.3h-1.1V3.6h-2.7v0.9h-1c-0.1,0-0.3,0.1-0.3,0.3S23.7,5,23.9,5
		h1v0.4h-1.4c-0.1,0-0.3,0.1-0.3,0.3s0.1,0.3,0.3,0.3h1.4v0.4h-1.6c-0.1,0-0.3,0.1-0.3,0.3s0.1,0.3,0.3,0.3h1.6v0.4h-1.7
		c-0.1,0-0.3,0.1-0.3,0.3s0.1,0.3,0.3,0.3h1.7V8h-1.8c-0.1,0-0.3,0.1-0.3,0.3S22.9,8.5,23.1,8.5z"/>
</g>
</svg>
