<?xml version="1.0" encoding="utf-8"?>
<!-- Generator: Adobe Illustrator 23.0.3, SVG Export Plug-In . SVG Version: 6.00 Build 0)  -->
<svg version="1.1" id="Layer_1" xmlns="http://www.w3.org/2000/svg" xmlns:xlink="http://www.w3.org/1999/xlink" x="0px" y="0px"
	 viewBox="0 0 32 32" style="enable-background:new 0 0 32 32;" xml:space="preserve">
<style type="text/css">
	.st0{fill:#95BF47;}
	.st1{fill:#5E8E3E;}
	.st2{fill:#FFFFFF;}
</style>
<path class="st0" d="M25.6,7.5c0-0.1-0.1-0.2-0.2-0.2c-0.1,0-2.2-0.2-2.2-0.2s-1.5-1.5-1.7-1.6c-0.2-0.2-0.5-0.1-0.6-0.1
	c0,0-0.3,0.1-0.8,0.3c-0.5-1.5-1.4-2.8-2.9-2.8h-0.1c-0.4-0.6-1-0.8-1.4-0.8c-3.6,0-5.3,4.5-5.9,6.8C8.2,9.3,7.2,9.6,7.1,9.6
	c-0.8,0.2-0.8,0.3-0.9,1C6.1,11.2,4.1,27,4.1,27l15.9,3l8.6-1.9C28.6,28,25.6,7.6,25.6,7.5L25.6,7.5z M19.1,5.9
	c-0.4,0.1-0.9,0.3-1.3,0.4V6c0-0.9-0.1-1.6-0.3-2.2C18.3,3.9,18.8,4.8,19.1,5.9z M16.5,4c0.2,0.6,0.4,1.3,0.4,2.4v0.2
	C15.9,6.9,15,7.2,14,7.5C14.6,5.4,15.6,4.4,16.5,4z M15.4,3c0.2,0,0.3,0.1,0.5,0.2c-1.2,0.5-2.4,1.9-2.9,4.6
	c-0.8,0.2-1.5,0.5-2.2,0.7C11.4,6.4,12.8,3,15.4,3L15.4,3z"/>
<path class="st1" d="M25.3,7.2c-0.1,0-2.2-0.2-2.2-0.2s-1.5-1.5-1.7-1.6c-0.1-0.1-0.1-0.1-0.2-0.1L20,29.9l8.6-1.9
	c0,0-3-20.4-3-20.6C25.5,7.3,25.4,7.3,25.3,7.2z"/>
<path class="st2" d="M17.1,12l-1,3.2c0,0-0.9-0.5-2.1-0.5c-1.7,0-1.8,1.1-1.8,1.3c0,1.4,3.8,2,3.8,5.4c0,2.7-1.7,4.4-4,4.4
	c-2.7,0-4.1-1.7-4.1-1.7l0.7-2.4c0,0,1.4,1.2,2.6,1.2c0.8,0,1.1-0.6,1.1-1.1c0-1.9-3.1-2-3.1-5.1c0-2.6,1.9-5.1,5.6-5.1
	C16.4,11.6,17.1,12,17.1,12z"/>
</svg>
