<?xml version="1.0" encoding="utf-8"?>
<!-- Generator: Adobe Illustrator 23.0.3, SVG Export Plug-In . SVG Version: 6.00 Build 0)  -->
<svg version="1.1" id="Layer_1" xmlns="http://www.w3.org/2000/svg" xmlns:xlink="http://www.w3.org/1999/xlink" x="0px" y="0px"
	 viewBox="0 0 26 29" style="enable-background:new 0 0 26 29;" xml:space="preserve">
<style type="text/css">
	.st0{fill:#95BF47;}
	.st1{fill:#5E8E3E;}
	.st2{fill:#FFFFFF;}
</style>
<path class="st0" d="M20.6,6.6c0-0.1-0.1-0.2-0.2-0.2s-1.9-0.1-1.9-0.1S17.2,5,17,4.9c-0.1-0.1-0.4-0.1-0.5-0.1c0,0-0.3,0.1-0.7,0.2
	c-0.4-1.3-1.2-2.4-2.5-2.4h-0.1c-0.4-0.5-0.8-0.7-1.2-0.7c-3.1,0-4.6,3.9-5.1,5.9C5.6,8.2,4.7,8.4,4.6,8.5C3.9,8.7,3.9,8.7,3.8,9.3
	C3.8,9.8,2,23.5,2,23.5l13.8,2.6l7.5-1.6C23.3,24.5,20.6,6.8,20.6,6.6L20.6,6.6z M15,5.2c-0.3,0.1-0.8,0.2-1.2,0.4V5.4
	c0-0.8-0.1-1.4-0.3-1.9C14.3,3.6,14.7,4.3,15,5.2z M12.7,3.6C12.9,4.1,13,4.8,13,5.7v0.1c-0.8,0.2-1.6,0.5-2.4,0.8
	C11.1,4.8,12,3.9,12.7,3.6z M11.8,2.7c0.1,0,0.3,0.1,0.4,0.1c-1,0.5-2.1,1.6-2.5,4C9,7.1,8.4,7.3,7.8,7.5C8.3,5.7,9.6,2.7,11.8,2.7
	L11.8,2.7z"/>
<path class="st1" d="M20.4,6.4c-0.1,0-1.9-0.1-1.9-0.1S17.2,5,17,4.9c-0.1-0.1-0.1-0.1-0.2-0.1l-1,21.3l7.5-1.6
	c0,0-2.6-17.7-2.6-17.9C20.6,6.5,20.5,6.4,20.4,6.4z"/>
<path class="st2" d="M13.2,10.6l-0.9,2.7c0,0-0.8-0.4-1.8-0.4C9.1,12.8,9,13.8,9,14c0,1.2,3.3,1.7,3.3,4.7c0,2.3-1.5,3.8-3.4,3.8
	c-2.4,0-3.6-1.5-3.6-1.5l0.6-2.1c0,0,1.2,1.1,2.3,1.1c0.7,0,1-0.5,1-0.9c0-1.6-2.7-1.7-2.7-4.4c0-2.3,1.6-4.4,4.9-4.4
	C12.6,10.2,13.2,10.6,13.2,10.6z"/>
</svg>
